ply
format ascii 1.0
comment Created in Blender version 4.3.2
element vertex 484
property float x
property float y
property float z
property float s
property float t
element face 441
property list uchar uint vertex_indices
end_header
0.90800804 0.8447273 0.046034068 0.9523809 0.95238096
1.0032455 0.8443622 0.046030372 1 0.95238096
1.0036105 0.93959564 0.04690206 1 1
0.9083731 0.9399607 0.046905756 0.95238096 1
-0.9967399 0.85202783 0.04610762 0 0.95238096
-0.90150255 0.85166276 0.046103925 0.047619045 0.95238096
-0.9011375 0.9468962 0.046975613 0.04761905 1
-0.99637485 0.9472613 0.046979308 0 1
-0.8062651 0.85129774 0.04610026 0.09523809 0.95238096
-0.8059 0.9465312 0.046971947 0.0952381 1
-0.71102774 0.8509327 0.046096563 0.14285713 0.95238096
-0.7106626 0.94616616 0.04696825 0.14285715 1
-0.61579037 0.8505677 0.046092898 0.19047618 0.95238096
-0.6154252 0.94580114 0.046964586 0.1904762 1
-0.520553 0.8502027 0.046089232 0.23809522 0.95238096
-0.52018785 0.9454361 0.04696092 0.23809524 1
-0.4253155 0.84983766 0.046085536 0.28571427 0.95238096
-0.42495045 0.9450711 0.046957225 0.2857143 1
-0.3300781 0.84947264 0.04608187 0.3333333 0.95238096
-0.32971305 0.9447061 0.04695356 0.33333334 1
-0.2348407 0.8491076 0.046078175 0.38095236 0.95238096
-0.23447567 0.94434106 0.046949863 0.3809524 1
-0.13960332 0.8487426 0.04607451 0.4285714 0.95238096
-0.13923827 0.94397604 0.046946198 0.42857143 1
-0.04436592 0.8483775 0.046070844 0.47619045 0.95238096
-0.04400087 0.94361097 0.046942532 0.47619048 1
0.050871484 0.8480125 0.04606715 0.52380955 0.95238096
0.051236533 0.94324595 0.046938837 0.52380955 1
0.1461089 0.8476474 0.046063483 0.57142854 0.95238096
0.14647394 0.94288087 0.04693517 0.5714286 1
0.24134628 0.8472824 0.046059817 0.61904764 0.95238096
0.24171135 0.94251585 0.046931505 0.61904764 1
0.3365837 0.8469174 0.04605612 0.6666666 0.95238096
0.33694875 0.94215083 0.04692781 0.6666667 1
0.4318211 0.8465524 0.046052456 0.71428573 0.95238096
0.43218616 0.9417858 0.046924144 0.71428573 1
0.5270585 0.84618735 0.04604876 0.7619047 0.95238096
0.52742356 0.9414208 0.04692045 0.7619048 1
0.62229586 0.84582233 0.046045095 0.8095238 0.95238096
0.62266093 0.9410558 0.046916783 0.8095238 1
0.71753323 0.8454573 0.04604143 0.8571428 0.95238096
0.7178983 0.94069076 0.046913117 0.85714287 1
0.8127706 0.8450923 0.046037734 0.9047619 0.95238096
0.8131357 0.94032574 0.04690942 0.9047619 1
-1.0040408 -1.0526404 0.028674424 0 0
-0.9088035 -1.0530055 0.028670728 0.04761905 0
-0.90843844 -0.957772 0.029542416 0.04761905 0.04761905
-1.0036758 -0.957407 0.029546112 0 0.04761905
-0.9080734 -0.86253864 0.030414075 0.04761905 0.0952381
-1.0033108 -0.8621735 0.03041777 0 0.0952381
-0.90770835 -0.7673052 0.031285733 0.047619052 0.14285715
-1.0029458 -0.7669401 0.03128943 0 0.14285715
-0.90734327 -0.6720718 0.03215736 0.047619052 0.1904762
-1.0025806 -0.6717067 0.032161057 0 0.1904762
-0.9069782 -0.57683843 0.03302905 0.047619052 0.23809524
-1.0022156 -0.5764733 0.0330327 0 0.23809524
-0.9066132 -0.481605 0.033900708 0.047619052 0.28571427
-1.0018506 -0.48123989 0.033904374 0 0.2857143
-0.90624815 -0.38637158 0.034772366 0.047619052 0.3333333
-1.0014856 -0.3860065 0.034776017 0 0.33333334
-0.9058831 -0.29113817 0.035644032 0.047619052 0.38095236
-1.0011206 -0.2907731 0.035647698 0 0.3809524
-0.90551805 -0.19590475 0.03651569 0.047619052 0.4285714
-1.0007554 -0.1955397 0.03651937 0 0.42857143
-0.905153 -0.10067133 0.037387356 0.047619052 0.47619048
-1.0003904 -0.10030628 0.03739103 0 0.47619048
-0.90478796 -0.005437905 0.038259014 0.04761905 0.52380955
-1.0000254 -0.005072862 0.03826269 0 0.52380955
-0.9044229 0.0897955 0.039130677 0.04761905 0.5714286
-0.99966025 0.090160556 0.039134353 0 0.5714286
-0.90405786 0.18502891 0.04000234 0.047619052 0.61904764
-0.99929523 0.18539399 0.04000602 0 0.61904764
-0.9036928 0.2802623 0.04087401 0.047619052 0.6666667
-0.99893016 0.2806274 0.040877678 0 0.6666667
-0.90332776 0.3754957 0.041745663 0.047619052 0.71428573
-0.99856514 0.3758608 0.04174933 0 0.71428573
-0.90296274 0.4707291 0.042617336 0.04761905 0.7619048
-0.9982001 0.47109422 0.042621 0 0.7619048
-0.90259767 0.56596255 0.043488994 0.04761905 0.8095238
-0.99783504 0.56632763 0.04349269 0 0.8095238
-0.90223265 0.66119593 0.044360608 0.04761905 0.85714287
-0.99747 0.6615611 0.044364333 0 0.85714287
-0.90186757 0.7564293 0.045232296 0.047619045 0.9047619
-0.99710494 0.75679445 0.04523599 0 0.9047619
-0.8135661 -1.0533705 0.028667063 0.0952381 0
-0.813201 -0.95813704 0.02953875 0.0952381 0.04761905
-0.812836 -0.86290365 0.030410409 0.0952381 0.0952381
-0.8124709 -0.7676703 0.031282067 0.095238104 0.14285715
-0.81210583 -0.67243683 0.032153696 0.095238104 0.1904762
-0.81174076 -0.57720345 0.033025384 0.095238104 0.23809524
-0.81137574 -0.48197 0.033897042 0.095238104 0.28571427
-0.8110107 -0.38673663 0.0347687 0.095238104 0.3333333
-0.81064564 -0.2915032 0.03564035 0.095238104 0.38095236
-0.8102806 -0.19626978 0.03651201 0.095238104 0.4285714
-0.80991554 -0.101036355 0.037383676 0.095238104 0.47619048
-0.8095505 -0.005802935 0.038255334 0.0952381 0.52380955
-0.80918545 0.089430474 0.039126996 0.0952381 0.5714286
-0.8088204 0.18466388 0.039998658 0.095238104 0.61904764
-0.80845535 0.27989727 0.040870346 0.095238104 0.6666667
-0.8080903 0.37513065 0.041741997 0.095238104 0.71428573
-0.8077253 0.4703641 0.04261367 0.0952381 0.7619048
-0.80736023 0.56559753 0.04348533 0.0952381 0.8095238
-0.8069952 0.6608309 0.044356942 0.0952381 0.85714287
-0.80663013 0.7560643 0.04522863 0.09523809 0.9047619
-0.7183287 -1.0537355 0.028663367 0.14285715 0
-0.71796364 -0.95850205 0.029535055 0.14285715 0.04761905
-0.7175986 -0.8632687 0.030406713 0.14285715 0.0952381
-0.71723354 -0.7680353 0.03127837 0.14285715 0.14285715
-0.71686846 -0.67280185 0.03215 0.14285715 0.1904762
-0.7165034 -0.5775685 0.033021703 0.14285715 0.23809524
-0.71613836 -0.48233506 0.03389336 0.14285715 0.28571427
-0.71577334 -0.38710165 0.03476502 0.14285715 0.3333333
-0.71540827 -0.29186824 0.03563667 0.14285713 0.38095236
-0.71504325 -0.1966348 0.03650833 0.14285713 0.4285714
-0.71467817 -0.10140139 0.037380002 0.14285713 0.47619048
-0.71431315 -0.006167965 0.03825166 0.14285713 0.52380955
-0.7139481 0.08906545 0.039123315 0.14285713 0.5714286
-0.71358305 0.18429884 0.039994977 0.14285713 0.61904764
-0.713218 0.27953225 0.040866666 0.14285713 0.6666667
-0.71285295 0.37476563 0.041738316 0.14285713 0.71428573
-0.71248794 0.46999905 0.04260999 0.14285713 0.7619048
-0.71212286 0.56523246 0.043481633 0.14285713 0.8095238
-0.71175784 0.6604659 0.044353247 0.14285713 0.85714287
-0.71139276 0.7556993 0.045224935 0.14285713 0.9047619
-0.62309134 -1.0541005 0.028659701 0.1904762 0
-0.62272626 -0.95886713 0.02953139 0.1904762 0.04761905
-0.62236124 -0.86363375 0.030403048 0.1904762 0.0952381
-0.62199616 -0.7684003 0.031274706 0.19047621 0.14285715
-0.6216311 -0.6731669 0.032146335 0.19047621 0.1904762
-0.621266 -0.5779335 0.033018023 0.19047621 0.23809524
-0.620901 -0.48270008 0.03388968 0.19047621 0.28571427
-0.62053597 -0.38746667 0.03476134 0.19047621 0.3333333
-0.6201709 -0.29223326 0.035632998 0.19047621 0.38095236
-0.6198059 -0.19699983 0.036504656 0.19047621 0.4285714
-0.6194408 -0.101766415 0.03737632 0.19047621 0.47619048
-0.6190758 -0.006532995 0.03824798 0.1904762 0.52380955
-0.6187107 0.08870041 0.039119642 0.1904762 0.5714286
-0.6183457 0.18393382 0.039991304 0.19047621 0.61904764
-0.6179806 0.2791672 0.040862985 0.19047621 0.6666667
-0.6176156 0.37440062 0.041734636 0.19047621 0.71428573
-0.61725056 0.46963403 0.04260631 0.1904762 0.7619048
-0.6168855 0.56486744 0.043477967 0.1904762 0.8095238
-0.61652046 0.6601009 0.04434958 0.1904762 0.85714287
-0.6161554 0.75533426 0.04522127 0.19047618 0.9047619
-0.52785397 -1.0544655 0.028656036 0.23809524 0
-0.5274889 -0.95923215 0.029527724 0.23809525 0.04761905
-0.52712387 -0.8639988 0.030399382 0.23809525 0.0952381
-0.5267588 -0.76876533 0.03127104 0.23809525 0.14285715
-0.5263937 -0.67353195 0.03214267 0.23809524 0.1904762
-0.52602863 -0.57829857 0.033014342 0.23809524 0.23809524
-0.5256636 -0.48306513 0.033886 0.23809524 0.28571427
-0.5252986 -0.3878317 0.03475766 0.23809524 0.3333333
-0.5249335 -0.2925983 0.035629317 0.23809522 0.38095236
-0.5245685 -0.19736487 0.036500975 0.23809522 0.4285714
-0.5242034 -0.10213144 0.03737265 0.23809522 0.47619048
-0.5238384 -0.006898025 0.038244307 0.23809522 0.52380955
-0.5234733 0.08833538 0.03911596 0.23809522 0.5714286
-0.5231083 0.18356879 0.039987624 0.23809522 0.61904764
-0.5227432 0.2788022 0.040859304 0.23809522 0.6666667
-0.5223782 0.3740356 0.041730955 0.23809522 0.71428573
-0.5220132 0.46926898 0.04260263 0.23809522 0.7619048
-0.5216481 0.5645024 0.0434743 0.23809522 0.8095238
-0.5212831 0.6597358 0.044345915 0.23809522 0.85714287
-0.520918 0.75496924 0.045217603 0.23809522 0.9047619
-0.4326165 -1.0548306 0.02865234 0.28571427 0
-0.43225145 -0.9595972 0.029524028 0.28571427 0.04761905
-0.4318864 -0.8643638 0.030395687 0.28571427 0.0952381
-0.4315214 -0.76913035 0.031267345 0.28571427 0.14285715
-0.43115634 -0.67389697 0.032138973 0.28571427 0.1904762
-0.4307913 -0.5786636 0.03301066 0.28571427 0.23809524
-0.43042624 -0.48343015 0.03388232 0.28571427 0.28571427
-0.4300612 -0.38819674 0.03475398 0.28571427 0.3333333
-0.42969614 -0.29296333 0.035625644 0.28571424 0.38095236
-0.42933106 -0.19772989 0.036497302 0.28571424 0.4285714
-0.42896602 -0.102496475 0.037368968 0.28571424 0.47619048
-0.428601 -0.007263053 0.038240626 0.28571424 0.52380955
-0.42823595 0.08797035 0.03911229 0.28571424 0.5714286
-0.4278709 0.18320376 0.03998395 0.28571424 0.61904764
-0.42750585 0.27843717 0.040855624 0.28571424 0.6666667
-0.4271408 0.37367055 0.041727275 0.28571424 0.71428573
-0.42677575 0.46890396 0.042598948 0.28571424 0.7619048
-0.4264107 0.5641374 0.043470606 0.28571427 0.8095238
-0.42604566 0.6593708 0.04434222 0.28571427 0.85714287
-0.42568058 0.7546042 0.045213908 0.28571427 0.9047619
-0.3373791 -1.0551956 0.028648674 0.3333333 0
-0.33701405 -0.95996225 0.029520363 0.3333333 0.04761905
-0.336649 -0.8647288 0.030392021 0.3333333 0.0952381
-0.33628398 -0.76949537 0.03126368 0.3333333 0.14285715
-0.33591893 -0.674262 0.032135308 0.33333328 0.1904762
-0.33555388 -0.5790286 0.033006996 0.33333328 0.23809524
-0.33518884 -0.48379517 0.033878654 0.33333328 0.28571427
-0.3348238 -0.38856176 0.034750313 0.33333328 0.3333333
-0.33445874 -0.29332834 0.035621963 0.33333328 0.38095236
-0.33409366 -0.19809492 0.03649362 0.33333328 0.4285714
-0.3337286 -0.1028615 0.03736529 0.3333333 0.47619048
-0.3333636 -0.007628083 0.03823695 0.3333333 0.52380955
-0.33299854 0.08760533 0.039108608 0.3333333 0.5714286
-0.3326335 0.18283874 0.03998027 0.3333333 0.61904764
-0.33226845 0.27807212 0.040851958 0.3333333 0.6666667
-0.3319034 0.37330553 0.04172361 0.3333333 0.71428573
-0.33153835 0.46853894 0.042595282 0.3333333 0.7619048
-0.3311733 0.5637724 0.04346694 0.3333333 0.8095238
-0.33080825 0.65900576 0.044338554 0.3333333 0.85714287
-0.33044317 0.75423914 0.045210242 0.3333333 0.9047619
-0.24214171 -1.0555606 0.028644979 0.38095236 0
-0.24177667 -0.96032727 0.029516667 0.38095236 0.04761905
-0.24141161 -0.8650938 0.030388325 0.38095236 0.0952381
-0.24104656 -0.7698604 0.031259984 0.3809524 0.14285715
-0.24068151 -0.674627 0.032131612 0.3809524 0.1904762
-0.24031648 -0.5793936 0.033003315 0.3809524 0.23809524
-0.23995143 -0.48416018 0.033874974 0.3809524 0.28571427
-0.23958637 -0.3889268 0.034746632 0.3809524 0.3333333
-0.23922132 -0.29369336 0.03561829 0.3809524 0.38095236
-0.23885629 -0.19845995 0.03648995 0.3809524 0.4285714
-0.23849124 -0.103226535 0.037361614 0.3809524 0.47619048
-0.23812619 -0.007993113 0.038233273 0.38095236 0.52380955
-0.23776112 0.08724029 0.039104935 0.38095236 0.5714286
-0.23739609 0.1824737 0.039976597 0.38095236 0.61904764
-0.23703104 0.2777071 0.040848278 0.38095236 0.6666667
-0.236666 0.37294048 0.04171993 0.3809524 0.71428573
-0.23630093 0.46817392 0.0425916 0.3809524 0.7619048
-0.23593588 0.5634073 0.043463245 0.3809524 0.8095238
-0.23557083 0.65864074 0.04433486 0.3809524 0.85714287
-0.23520577 0.7538741 0.045206547 0.38095236 0.9047619
-0.1469043 -1.0559256 0.028641313 0.4285714 0
-0.14653927 -0.9606923 0.029513001 0.4285714 0.04761905
-0.1461742 -0.86545885 0.03038466 0.4285714 0.0952381
-0.14580916 -0.77022547 0.031256318 0.4285714 0.14285715
-0.14544411 -0.6749921 0.032127947 0.4285714 0.1904762
-0.14507908 -0.57975864 0.032999635 0.4285714 0.23809524
-0.14471403 -0.48452523 0.033871293 0.4285714 0.28571427
-0.14434896 -0.38929182 0.03474295 0.4285714 0.3333333
-0.14398392 -0.2940584 0.03561461 0.4285714 0.38095236
-0.14361888 -0.19882499 0.036486268 0.4285714 0.4285714
-0.14325383 -0.10359156 0.037357938 0.42857143 0.47619048
-0.14288878 -0.008358143 0.038229596 0.42857143 0.52380955
-0.14252372 0.08687526 0.039101254 0.42857143 0.5714286
-0.14215869 0.18210867 0.039972916 0.42857143 0.61904764
-0.14179364 0.27734208 0.040844597 0.42857143 0.6666667
-0.14142859 0.37257546 0.041716248 0.42857143 0.71428573
-0.14106354 0.46780887 0.04258792 0.42857143 0.7619048
-0.14069849 0.5630423 0.04345958 0.42857143 0.8095238
-0.14033344 0.6582757 0.044331193 0.42857143 0.85714287
-0.13996838 0.7535091 0.04520288 0.4285714 0.9047619
-0.051666897 -1.0562906 0.028637648 0.47619048 0
-0.05130185 -0.9610573 0.029509336 0.4761905 0.04761905
-0.0509368 -0.86582386 0.030380994 0.4761905 0.0952381
-0.050571755 -0.7705905 0.031252652 0.4761905 0.14285715
-0.050206706 -0.6753571 0.03212428 0.47619048 0.1904762
-0.049841657 -0.58012366 0.032995954 0.47619048 0.23809524
-0.04947661 -0.48489028 0.033867612 0.47619048 0.28571427
-0.04911156 -0.38965684 0.03473927 0.47619048 0.3333333
-0.048746515 -0.29442343 0.035610937 0.47619045 0.38095236
-0.048381466 -0.19919002 0.036482595 0.47619045 0.4285714
-0.048016418 -0.103956595 0.03735426 0.47619045 0.47619048
-0.047651365 -0.008723172 0.03822592 0.47619045 0.52380955
-0.047286317 0.08651023 0.03909758 0.47619045 0.5714286
-0.04692127 0.18174365 0.039969243 0.47619045 0.61904764
-0.046556223 0.27697703 0.040840916 0.47619045 0.6666667
-0.04619117 0.37221044 0.041712567 0.47619045 0.71428573
-0.04582612 0.46744382 0.04258424 0.47619045 0.7619048
-0.04546107 0.56267726 0.043455914 0.47619045 0.8095238
-0.04509602 0.6579107 0.044327527 0.47619045 0.85714287
-0.044730972 0.753144 0.045199215 0.47619045 0.9047619
0.043570507 -1.0566556 0.028633952 0.52380955 0
0.043935556 -0.9614223 0.02950564 0.52380955 0.04761905
0.044300605 -0.8661889 0.030377299 0.52380955 0.0952381
0.04466565 -0.7709555 0.031248957 0.52380955 0.14285715
0.0450307 -0.6757221 0.032120585 0.52380955 0.1904762
0.045395747 -0.5804887 0.03299229 0.52380955 0.23809524
0.045760795 -0.4852553 0.033863947 0.52380955 0.28571427
0.046125844 -0.3900219 0.034735605 0.52380955 0.3333333
0.04649089 -0.29478848 0.035607256 0.52380955 0.38095236
0.046855938 -0.19955504 0.036478914 0.52380955 0.4285714
0.047220986 -0.10432162 0.037350584 0.52380955 0.47619048
0.04758604 -0.009088202 0.038222242 0.52380955 0.52380955
0.047951087 0.08614521 0.0390939 0.52380955 0.5714286
0.048316132 0.1813786 0.039965563 0.52380955 0.61904764
0.04868118 0.276612 0.04083725 0.52380955 0.6666667
0.049046233 0.37184542 0.0417089 0.52380955 0.71428573
0.049411286 0.4670788 0.042580575 0.52380955 0.7619048
0.049776334 0.56231225 0.04345222 0.52380955 0.8095238
0.050141383 0.6575457 0.04432383 0.52380955 0.85714287
0.05050643 0.752779 0.04519552 0.52380955 0.9047619
0.13880791 -1.0570208 0.028630286 0.5714286 0
0.13917294 -0.96178734 0.029501975 0.5714286 0.04761905
0.139538 -0.86655396 0.030373633 0.5714286 0.0952381
0.13990305 -0.7713205 0.031245291 0.5714286 0.14285715
0.1402681 -0.67608714 0.03211692 0.5714286 0.1904762
0.14063314 -0.58085376 0.032988608 0.5714286 0.23809524
0.14099818 -0.48562032 0.033860266 0.5714286 0.28571427
0.14136325 -0.3903869 0.034731925 0.5714286 0.3333333
0.1417283 -0.2951535 0.035603583 0.57142854 0.38095236
0.14209333 -0.19992007 0.03647524 0.57142854 0.4285714
0.14245838 -0.10468665 0.037346907 0.57142854 0.47619048
0.14282343 -0.0094532315 0.038218565 0.57142854 0.52380955
0.14318849 0.08578017 0.039090227 0.57142854 0.5714286
0.14355353 0.18101358 0.03996189 0.57142854 0.61904764
0.14391857 0.27624696 0.04083357 0.57142854 0.6666667
0.14428362 0.37148038 0.04170522 0.57142854 0.71428573
0.14464867 0.4667138 0.042576894 0.57142854 0.7619048
0.14501372 0.5619472 0.043448552 0.57142854 0.8095238
0.14537877 0.6571806 0.044320166 0.57142854 0.85714287
0.14574383 0.752414 0.045191854 0.57142854 0.9047619
0.2340453 -1.0573858 0.02862662 0.61904764 0
0.23441033 -0.96215236 0.029498309 0.61904764 0.04761905
0.2347754 -0.866919 0.030369967 0.61904764 0.0952381
0.23514044 -0.7716856 0.031241626 0.61904764 0.14285715
0.23550549 -0.67645216 0.032113254 0.61904764 0.1904762
0.23587053 -0.5812188 0.032984927 0.61904764 0.23809524
0.23623557 -0.48598534 0.033856586 0.61904764 0.28571427
0.23660064 -0.39075196 0.034728244 0.61904764 0.3333333
0.23696569 -0.29551852 0.035599902 0.61904764 0.38095236
0.23733072 -0.2002851 0.03647156 0.61904764 0.4285714
0.23769577 -0.10505168 0.03734323 0.61904764 0.47619048
0.23806082 -0.0098182615 0.03821489 0.6190476 0.52380955
0.23842588 0.08541515 0.039086547 0.6190476 0.5714286
0.23879091 0.18064855 0.03995821 0.61904764 0.61904764
0.23915596 0.27588195 0.04082989 0.61904764 0.6666667
0.23952101 0.37111533 0.04170154 0.61904764 0.71428573
0.23988606 0.46634877 0.042573214 0.61904764 0.7619048
0.24025112 0.5615822 0.043444887 0.61904764 0.8095238
0.24061619 0.6568156 0.0443165 0.61904764 0.85714287
0.24098124 0.75204897 0.04518819 0.61904764 0.9047619
0.3292827 -1.0577508 0.028622925 0.6666667 0
0.32964775 -0.9625174 0.029494613 0.6666667 0.04761905
0.3300128 -0.867284 0.030366272 0.6666667 0.0952381
0.33037782 -0.7720506 0.03123793 0.6666667 0.14285715
0.33074287 -0.6768172 0.03210956 0.6666666 0.1904762
0.3311079 -0.5815838 0.032981247 0.6666666 0.23809524
0.33147296 -0.4863504 0.033852905 0.6666666 0.28571427
0.331838 -0.39111698 0.034724563 0.6666666 0.3333333
0.33220306 -0.29588357 0.03559623 0.6666666 0.38095236
0.33256814 -0.20065013 0.036467887 0.6666666 0.4285714
0.3329332 -0.105416715 0.037339553 0.6666667 0.47619048
0.3332982 -0.0101832915 0.03821121 0.6666667 0.52380955
0.33366325 0.08505012 0.039082874 0.6666667 0.5714286
0.3340283 0.18028352 0.039954536 0.6666667 0.61904764
0.33439335 0.27551693 0.04082621 0.6666667 0.6666667
0.3347584 0.3707503 0.04169786 0.6666667 0.71428573
0.33512345 0.46598372 0.042569533 0.6666667 0.7619048
0.3354885 0.5612171 0.04344119 0.6666667 0.8095238
0.33585355 0.65645057 0.044312805 0.6666667 0.85714287
0.33621863 0.75168395 0.045184493 0.6666666 0.9047619
0.4245201 -1.0581158 0.02861926 0.71428573 0
0.42488515 -0.96288246 0.029490948 0.71428573 0.04761905
0.4252502 -0.8676491 0.030362606 0.71428573 0.0952381
0.42561522 -0.77241564 0.031234264 0.71428573 0.14285715
0.42598027 -0.6771822 0.032105893 0.71428573 0.1904762
0.42634532 -0.5819488 0.03297758 0.71428573 0.23809524
0.42671037 -0.4867154 0.03384924 0.71428573 0.28571427
0.42707542 -0.391482 0.034720898 0.71428573 0.3333333
0.42744046 -0.29624858 0.03559255 0.7142857 0.38095236
0.42780554 -0.20101516 0.036464207 0.7142857 0.4285714
0.4281706 -0.10578174 0.037335873 0.7142857 0.47619048
0.4285356 -0.010548321 0.03820753 0.7142857 0.52380955
0.42890066 0.08468509 0.039079193 0.7142857 0.5714286
0.4292657 0.1799185 0.039950855 0.7142857 0.61904764
0.42963076 0.27515188 0.040822543 0.7142857 0.6666667
0.4299958 0.3703853 0.041694194 0.7142857 0.71428573
0.43036085 0.4656187 0.042565867 0.7142857 0.7619048
0.4307259 0.5608521 0.043437526 0.7142857 0.8095238
0.43109095 0.65608555 0.04430914 0.71428573 0.85714287
0.43145603 0.75131893 0.045180827 0.71428573 0.9047619
0.51975745 -1.0584809 0.028615564 0.7619048 0
0.5201225 -0.9632475 0.029487252 0.7619048 0.04761905
0.52048755 -0.8680141 0.03035891 0.7619048 0.0952381
0.5208526 -0.77278066 0.031230569 0.76190484 0.14285715
0.5212177 -0.6775473 0.032102197 0.76190484 0.1904762
0.5215828 -0.5823139 0.0329739 0.76190484 0.23809524
0.5219478 -0.48708045 0.03384556 0.76190484 0.28571427
0.5223128 -0.391847 0.034717217 0.76190484 0.3333333
0.5226779 -0.29661363 0.035588875 0.76190484 0.38095236
0.5230429 -0.2013802 0.036460534 0.76190484 0.4285714
0.523408 -0.10614677 0.0373322 0.76190484 0.47619048
0.523773 -0.010913351 0.038203858 0.7619048 0.52380955
0.5241381 0.08432005 0.03907552 0.7619048 0.5714286
0.5245031 0.17955346 0.039947182 0.76190484 0.61904764
0.5248682 0.27478686 0.040818863 0.76190484 0.6666667
0.5252332 0.37002027 0.041690513 0.76190484 0.71428573
0.5255982 0.46525365 0.042562187 0.7619048 0.7619048
0.5259633 0.5604871 0.04343383 0.7619048 0.8095238
0.5263283 0.6557205 0.044305444 0.7619048 0.85714287
0.5266934 0.7509539 0.045177132 0.7619047 0.9047619
0.6149948 -1.0588459 0.028611898 0.8095238 0
0.6153599 -0.9636125 0.029483587 0.8095238 0.04761905
0.6157249 -0.8683791 0.030355245 0.8095238 0.0952381
0.61609 -0.7731457 0.031226903 0.8095239 0.14285715
0.6164551 -0.6779123 0.03209853 0.8095239 0.1904762
0.61682016 -0.5826789 0.03297022 0.8095239 0.23809524
0.6171852 -0.48744547 0.03384188 0.8095239 0.28571427
0.6175502 -0.39221206 0.034713537 0.8095239 0.3333333
0.6179153 -0.29697865 0.035585195 0.8095238 0.38095236
0.6182803 -0.20174521 0.036456853 0.8095238 0.4285714
0.61864537 -0.1065118 0.03732852 0.8095238 0.47619048
0.6190104 -0.01127838 0.038200177 0.8095238 0.52380955
0.61937547 0.08395503 0.03907184 0.8095238 0.5714286
0.6197405 0.17918843 0.0399435 0.8095238 0.61904764
0.62010556 0.27442184 0.040815182 0.8095238 0.6666667
0.6204706 0.36965522 0.041686833 0.8095238 0.71428573
0.6208356 0.46488863 0.042558506 0.8095238 0.7619048
0.6212007 0.5601221 0.043430164 0.8095238 0.8095238
0.6215657 0.65535545 0.044301778 0.8095238 0.85714287
0.6219308 0.7505889 0.045173466 0.8095238 0.9047619
0.7102322 -1.0592109 0.028608233 0.85714287 0
0.7105973 -0.9639776 0.02947992 0.85714287 0.04761905
0.7109623 -0.86874413 0.03035158 0.85714287 0.0952381
0.7113274 -0.7735107 0.031223238 0.85714287 0.14285715
0.71169245 -0.6782773 0.032094866 0.85714287 0.1904762
0.71205753 -0.58304393 0.03296654 0.85714287 0.23809524
0.71242255 -0.4878105 0.033838198 0.85714287 0.28571427
0.71278757 -0.39257708 0.034709856 0.85714287 0.3333333
0.71315265 -0.29734367 0.03558152 0.85714287 0.38095236
0.71351767 -0.20211025 0.03645318 0.85714287 0.4285714
0.71388274 -0.10687683 0.037324846 0.8571429 0.47619048
0.71424776 -0.01164341 0.038196504 0.8571429 0.52380955
0.71461284 0.08359 0.039068166 0.85714287 0.5714286
0.71497786 0.17882341 0.03993983 0.85714287 0.61904764
0.71534294 0.2740568 0.0408115 0.85714287 0.6666667
0.71570796 0.3692902 0.041683152 0.85714287 0.71428573
0.716073 0.4645236 0.042554826 0.85714287 0.7619048
0.71643806 0.55975705 0.0434265 0.85714287 0.8095238
0.7168031 0.65499043 0.044298112 0.85714287 0.85714287
0.71716815 0.7502238 0.0451698 0.8571428 0.9047619
0.8054696 -1.0595759 0.028604537 0.9047619 0
0.80583465 -0.9643426 0.029476225 0.9047619 0.04761905
0.80619967 -0.86910915 0.030347884 0.9047619 0.0952381
0.80656475 -0.7738757 0.031219542 0.9047619 0.14285715
0.8069298 -0.67864233 0.03209117 0.90476185 0.1904762
0.8072949 -0.58340895 0.03296286 0.90476185 0.23809524
0.8076599 -0.4881755 0.033834517 0.90476185 0.28571427
0.80802494 -0.39294213 0.034706175 0.90476185 0.3333333
0.80839 -0.2977087 0.03557784 0.90476185 0.38095236
0.80875504 -0.20247528 0.0364495 0.90476185 0.4285714
0.8091201 -0.10724186 0.037321165 0.9047619 0.47619048
0.80948514 -0.012008439 0.038192824 0.90476185 0.52380955
0.8098502 0.08322497 0.039064486 0.90476185 0.5714286
0.81021523 0.17845838 0.039936148 0.9047619 0.61904764
0.8105803 0.27369177 0.04080782 0.9047619 0.6666667
0.81094533 0.36892515 0.04167947 0.9047619 0.71428573
0.81131035 0.4641586 0.042551145 0.9047619 0.7619048
0.8116754 0.559392 0.043422803 0.9047619 0.8095238
0.81204045 0.6546254 0.044294417 0.9047619 0.85714287
0.8124055 0.7498588 0.045166105 0.9047619 0.9047619
0.90070707 -1.0599409 0.028600872 0.95238096 0
0.90107214 -0.9647076 0.02947256 0.952381 0.04761905
0.90143716 -0.8694742 0.030344218 0.952381 0.0952381
0.90180224 -0.7742408 0.031215876 0.952381 0.14285715
0.9021673 -0.6790074 0.032087505 0.95238096 0.1904762
0.9025324 -0.583774 0.032959193 0.95238096 0.23809524
0.9028974 -0.48854056 0.03383085 0.95238096 0.28571427
0.90326244 -0.39330715 0.03470251 0.95238096 0.3333333
0.9036275 -0.29807374 0.03557416 0.9523809 0.38095236
0.90399253 -0.20284031 0.03644582 0.9523809 0.4285714
0.9043576 -0.10760689 0.037317492 0.9523809 0.47619048
0.90472263 -0.012373469 0.03818915 0.9523809 0.52380955
0.9050877 0.08285993 0.039060805 0.9523809 0.5714286
0.9054527 0.17809334 0.039932467 0.9523809 0.61904764
0.9058178 0.27332675 0.040804155 0.9523809 0.6666667
0.9061828 0.36856014 0.041675806 0.9523809 0.71428573
0.90654784 0.46379355 0.04254748 0.9523809 0.7619048
0.9069129 0.55902696 0.043419138 0.9523809 0.8095238
0.90727794 0.6542604 0.04429075 0.9523809 0.85714287
0.907643 0.7494938 0.04516244 0.9523809 0.9047619
0.99594444 -1.0603061 0.028597176 1 0
0.9963095 -0.96507263 0.029468864 1 0.04761905
0.99667454 -0.8698392 0.030340523 1 0.0952381
0.9970396 -0.7746058 0.03121218 1 0.14285715
0.9974047 -0.67937243 0.03208381 1 0.1904762
0.9977698 -0.584139 0.032955512 1 0.23809524
0.9981348 -0.4889056 0.03382717 1 0.28571427
0.9984998 -0.39367217 0.03469883 1 0.3333333
0.9988649 -0.29843876 0.035570487 1 0.38095236
0.9992299 -0.20320533 0.036442146 1 0.4285714
0.999595 -0.10797192 0.03731381 1 0.47619048
0.99996 -0.012738499 0.03818547 1 0.52380955
1.000325 0.082494915 0.03905713 1 0.5714286
1.0006901 0.17772833 0.039928794 1 0.61904764
1.0010552 0.2729617 0.040800475 1 0.6666667
1.0014203 0.36819512 0.041672125 1 0.71428573
1.0017853 0.4634285 0.0425438 1 0.7619048
1.0021503 0.55866194 0.043415442 1 0.8095238
1.0025154 0.6538954 0.044287056 1 0.85714287
1.0028805 0.7491287 0.045158744 1 0.9047619
4 0 1 2 3
4 4 5 6 7
4 5 8 9 6
4 8 10 11 9
4 10 12 13 11
4 12 14 15 13
4 14 16 17 15
4 16 18 19 17
4 18 20 21 19
4 20 22 23 21
4 22 24 25 23
4 24 26 27 25
4 26 28 29 27
4 28 30 31 29
4 30 32 33 31
4 32 34 35 33
4 34 36 37 35
4 36 38 39 37
4 38 40 41 39
4 40 42 43 41
4 42 0 3 43
4 44 45 46 47
4 47 46 48 49
4 49 48 50 51
4 51 50 52 53
4 53 52 54 55
4 55 54 56 57
4 57 56 58 59
4 59 58 60 61
4 61 60 62 63
4 63 62 64 65
4 65 64 66 67
4 67 66 68 69
4 69 68 70 71
4 71 70 72 73
4 73 72 74 75
4 75 74 76 77
4 77 76 78 79
4 79 78 80 81
4 81 80 82 83
4 83 82 5 4
4 45 84 85 46
4 46 85 86 48
4 48 86 87 50
4 50 87 88 52
4 52 88 89 54
4 54 89 90 56
4 56 90 91 58
4 58 91 92 60
4 60 92 93 62
4 62 93 94 64
4 64 94 95 66
4 66 95 96 68
4 68 96 97 70
4 70 97 98 72
4 72 98 99 74
4 74 99 100 76
4 76 100 101 78
4 78 101 102 80
4 80 102 103 82
4 82 103 8 5
4 84 104 105 85
4 85 105 106 86
4 86 106 107 87
4 87 107 108 88
4 88 108 109 89
4 89 109 110 90
4 90 110 111 91
4 91 111 112 92
4 92 112 113 93
4 93 113 114 94
4 94 114 115 95
4 95 115 116 96
4 96 116 117 97
4 97 117 118 98
4 98 118 119 99
4 99 119 120 100
4 100 120 121 101
4 101 121 122 102
4 102 122 123 103
4 103 123 10 8
4 104 124 125 105
4 105 125 126 106
4 106 126 127 107
4 107 127 128 108
4 108 128 129 109
4 109 129 130 110
4 110 130 131 111
4 111 131 132 112
4 112 132 133 113
4 113 133 134 114
4 114 134 135 115
4 115 135 136 116
4 116 136 137 117
4 117 137 138 118
4 118 138 139 119
4 119 139 140 120
4 120 140 141 121
4 121 141 142 122
4 122 142 143 123
4 123 143 12 10
4 124 144 145 125
4 125 145 146 126
4 126 146 147 127
4 127 147 148 128
4 128 148 149 129
4 129 149 150 130
4 130 150 151 131
4 131 151 152 132
4 132 152 153 133
4 133 153 154 134
4 134 154 155 135
4 135 155 156 136
4 136 156 157 137
4 137 157 158 138
4 138 158 159 139
4 139 159 160 140
4 140 160 161 141
4 141 161 162 142
4 142 162 163 143
4 143 163 14 12
4 144 164 165 145
4 145 165 166 146
4 146 166 167 147
4 147 167 168 148
4 148 168 169 149
4 149 169 170 150
4 150 170 171 151
4 151 171 172 152
4 152 172 173 153
4 153 173 174 154
4 154 174 175 155
4 155 175 176 156
4 156 176 177 157
4 157 177 178 158
4 158 178 179 159
4 159 179 180 160
4 160 180 181 161
4 161 181 182 162
4 162 182 183 163
4 163 183 16 14
4 164 184 185 165
4 165 185 186 166
4 166 186 187 167
4 167 187 188 168
4 168 188 189 169
4 169 189 190 170
4 170 190 191 171
4 171 191 192 172
4 172 192 193 173
4 173 193 194 174
4 174 194 195 175
4 175 195 196 176
4 176 196 197 177
4 177 197 198 178
4 178 198 199 179
4 179 199 200 180
4 180 200 201 181
4 181 201 202 182
4 182 202 203 183
4 183 203 18 16
4 184 204 205 185
4 185 205 206 186
4 186 206 207 187
4 187 207 208 188
4 188 208 209 189
4 189 209 210 190
4 190 210 211 191
4 191 211 212 192
4 192 212 213 193
4 193 213 214 194
4 194 214 215 195
4 195 215 216 196
4 196 216 217 197
4 197 217 218 198
4 198 218 219 199
4 199 219 220 200
4 200 220 221 201
4 201 221 222 202
4 202 222 223 203
4 203 223 20 18
4 204 224 225 205
4 205 225 226 206
4 206 226 227 207
4 207 227 228 208
4 208 228 229 209
4 209 229 230 210
4 210 230 231 211
4 211 231 232 212
4 212 232 233 213
4 213 233 234 214
4 214 234 235 215
4 215 235 236 216
4 216 236 237 217
4 217 237 238 218
4 218 238 239 219
4 219 239 240 220
4 220 240 241 221
4 221 241 242 222
4 222 242 243 223
4 223 243 22 20
4 224 244 245 225
4 225 245 246 226
4 226 246 247 227
4 227 247 248 228
4 228 248 249 229
4 229 249 250 230
4 230 250 251 231
4 231 251 252 232
4 232 252 253 233
4 233 253 254 234
4 234 254 255 235
4 235 255 256 236
4 236 256 257 237
4 237 257 258 238
4 238 258 259 239
4 239 259 260 240
4 240 260 261 241
4 241 261 262 242
4 242 262 263 243
4 243 263 24 22
4 244 264 265 245
4 245 265 266 246
4 246 266 267 247
4 247 267 268 248
4 248 268 269 249
4 249 269 270 250
4 250 270 271 251
4 251 271 272 252
4 252 272 273 253
4 253 273 274 254
4 254 274 275 255
4 255 275 276 256
4 256 276 277 257
4 257 277 278 258
4 258 278 279 259
4 259 279 280 260
4 260 280 281 261
4 261 281 282 262
4 262 282 283 263
4 263 283 26 24
4 264 284 285 265
4 265 285 286 266
4 266 286 287 267
4 267 287 288 268
4 268 288 289 269
4 269 289 290 270
4 270 290 291 271
4 271 291 292 272
4 272 292 293 273
4 273 293 294 274
4 274 294 295 275
4 275 295 296 276
4 276 296 297 277
4 277 297 298 278
4 278 298 299 279
4 279 299 300 280
4 280 300 301 281
4 281 301 302 282
4 282 302 303 283
4 283 303 28 26
4 284 304 305 285
4 285 305 306 286
4 286 306 307 287
4 287 307 308 288
4 288 308 309 289
4 289 309 310 290
4 290 310 311 291
4 291 311 312 292
4 292 312 313 293
4 293 313 314 294
4 294 314 315 295
4 295 315 316 296
4 296 316 317 297
4 297 317 318 298
4 298 318 319 299
4 299 319 320 300
4 300 320 321 301
4 301 321 322 302
4 302 322 323 303
4 303 323 30 28
4 304 324 325 305
4 305 325 326 306
4 306 326 327 307
4 307 327 328 308
4 308 328 329 309
4 309 329 330 310
4 310 330 331 311
4 311 331 332 312
4 312 332 333 313
4 313 333 334 314
4 314 334 335 315
4 315 335 336 316
4 316 336 337 317
4 317 337 338 318
4 318 338 339 319
4 319 339 340 320
4 320 340 341 321
4 321 341 342 322
4 322 342 343 323
4 323 343 32 30
4 324 344 345 325
4 325 345 346 326
4 326 346 347 327
4 327 347 348 328
4 328 348 349 329
4 329 349 350 330
4 330 350 351 331
4 331 351 352 332
4 332 352 353 333
4 333 353 354 334
4 334 354 355 335
4 335 355 356 336
4 336 356 357 337
4 337 357 358 338
4 338 358 359 339
4 339 359 360 340
4 340 360 361 341
4 341 361 362 342
4 342 362 363 343
4 343 363 34 32
4 344 364 365 345
4 345 365 366 346
4 346 366 367 347
4 347 367 368 348
4 348 368 369 349
4 349 369 370 350
4 350 370 371 351
4 351 371 372 352
4 352 372 373 353
4 353 373 374 354
4 354 374 375 355
4 355 375 376 356
4 356 376 377 357
4 357 377 378 358
4 358 378 379 359
4 359 379 380 360
4 360 380 381 361
4 361 381 382 362
4 362 382 383 363
4 363 383 36 34
4 364 384 385 365
4 365 385 386 366
4 366 386 387 367
4 367 387 388 368
4 368 388 389 369
4 369 389 390 370
4 370 390 391 371
4 371 391 392 372
4 372 392 393 373
4 373 393 394 374
4 374 394 395 375
4 375 395 396 376
4 376 396 397 377
4 377 397 398 378
4 378 398 399 379
4 379 399 400 380
4 380 400 401 381
4 381 401 402 382
4 382 402 403 383
4 383 403 38 36
4 384 404 405 385
4 385 405 406 386
4 386 406 407 387
4 387 407 408 388
4 388 408 409 389
4 389 409 410 390
4 390 410 411 391
4 391 411 412 392
4 392 412 413 393
4 393 413 414 394
4 394 414 415 395
4 395 415 416 396
4 396 416 417 397
4 397 417 418 398
4 398 418 419 399
4 399 419 420 400
4 400 420 421 401
4 401 421 422 402
4 402 422 423 403
4 403 423 40 38
4 404 424 425 405
4 405 425 426 406
4 406 426 427 407
4 407 427 428 408
4 408 428 429 409
4 409 429 430 410
4 410 430 431 411
4 411 431 432 412
4 412 432 433 413
4 413 433 434 414
4 414 434 435 415
4 415 435 436 416
4 416 436 437 417
4 417 437 438 418
4 418 438 439 419
4 419 439 440 420
4 420 440 441 421
4 421 441 442 422
4 422 442 443 423
4 423 443 42 40
4 424 444 445 425
4 425 445 446 426
4 426 446 447 427
4 427 447 448 428
4 428 448 449 429
4 429 449 450 430
4 430 450 451 431
4 431 451 452 432
4 432 452 453 433
4 433 453 454 434
4 434 454 455 435
4 435 455 456 436
4 436 456 457 437
4 437 457 458 438
4 438 458 459 439
4 439 459 460 440
4 440 460 461 441
4 441 461 462 442
4 442 462 463 443
4 443 463 0 42
4 444 464 465 445
4 445 465 466 446
4 446 466 467 447
4 447 467 468 448
4 448 468 469 449
4 449 469 470 450
4 450 470 471 451
4 451 471 472 452
4 452 472 473 453
4 453 473 474 454
4 454 474 475 455
4 455 475 476 456
4 456 476 477 457
4 457 477 478 458
4 458 478 479 459
4 459 479 480 460
4 460 480 481 461
4 461 481 482 462
4 462 482 483 463
4 463 483 1 0
