ply
format ascii 1.0
comment Created in Blender version 4.3.2
element vertex 484
property float x
property float y
property float z
property float s
property float t
element face 441
property list uchar uint vertex_indices
end_header
0.9047619 0.50971425 -0.6795286 0.9523809 0.95238096
1 0.50971425 -0.6795286 1 0.95238096
1 0.5633684 -0.75821483 1 1
0.9047619 0.5633684 -0.75821483 0.95238096 1
-1 0.50971425 -0.6795286 0 0.95238096
-0.9047619 0.50971425 -0.6795286 0.047619045 0.95238096
-0.9047619 0.5633684 -0.75821483 0.04761905 1
-1 0.5633684 -0.75821483 0 1
-0.8095238 0.50971425 -0.6795286 0.09523809 0.95238096
-0.80952376 0.5633684 -0.75821483 0.0952381 1
-0.71428573 0.50971425 -0.6795286 0.14285713 0.95238096
-0.7142857 0.5633684 -0.75821483 0.14285715 1
-0.61904764 0.50971425 -0.6795286 0.19047618 0.95238096
-0.6190476 0.5633684 -0.75821483 0.1904762 1
-0.52380955 0.50971425 -0.6795286 0.23809522 0.95238096
-0.5238095 0.5633684 -0.75821483 0.23809524 1
-0.4285714 0.50971425 -0.6795286 0.28571427 0.95238096
-0.4285714 0.5633684 -0.75821483 0.2857143 1
-0.3333333 0.50971425 -0.6795286 0.3333333 0.95238096
-0.3333333 0.5633684 -0.75821483 0.33333334 1
-0.23809522 0.50971425 -0.6795286 0.38095236 0.95238096
-0.23809522 0.5633684 -0.75821483 0.3809524 1
-0.14285713 0.50971425 -0.6795286 0.4285714 0.95238096
-0.14285713 0.5633684 -0.75821483 0.42857143 1
-0.047619045 0.50971425 -0.6795286 0.47619045 0.95238096
-0.047619045 0.5633684 -0.75821483 0.47619048 1
0.04761906 0.50971425 -0.6795286 0.52380955 0.95238096
0.04761906 0.5633684 -0.75821483 0.52380955 1
0.14285716 0.50971425 -0.6795286 0.57142854 0.95238096
0.14285716 0.5633684 -0.75821483 0.5714286 1
0.23809525 0.50971425 -0.6795286 0.61904764 0.95238096
0.23809527 0.5633684 -0.75821483 0.61904764 1
0.33333337 0.50971425 -0.6795286 0.6666666 0.95238096
0.33333337 0.5633684 -0.75821483 0.6666667 1
0.42857146 0.50971425 -0.6795286 0.71428573 0.95238096
0.42857146 0.5633684 -0.75821483 0.71428573 1
0.52380955 0.50971425 -0.6795286 0.7619047 0.95238096
0.52380955 0.5633684 -0.75821483 0.7619048 1
0.61904764 0.50971425 -0.6795286 0.8095238 0.95238096
0.61904764 0.5633684 -0.75821483 0.8095238 1
0.71428573 0.50971425 -0.6795286 0.8571428 0.95238096
0.71428573 0.5633684 -0.75821483 0.85714287 1
0.8095238 0.50971425 -0.6795286 0.9047619 0.95238096
0.8095238 0.5633684 -0.75821483 0.9047619 1
-1 -0.5633684 0.89419687 0 0
-0.9047619 -0.5633684 0.89419687 0.04761905 0
-0.9047619 -0.50971425 0.81551063 0.04761905 0.04761905
-1 -0.50971425 0.81551063 0 0.04761905
-0.9047619 -0.4560601 0.73682433 0.04761905 0.0952381
-1 -0.45606008 0.7368243 0 0.0952381
-0.9047619 -0.402406 0.6581381 0.047619052 0.14285715
-1 -0.40240595 0.65813804 0 0.14285715
-0.9047619 -0.34875187 0.5794518 0.047619052 0.1904762
-1 -0.34875184 0.57945174 0 0.1904762
-0.9047619 -0.29509774 0.50076556 0.047619052 0.23809524
-1 -0.2950977 0.50076544 0 0.23809524
-0.9047619 -0.2414436 0.42207927 0.047619052 0.28571427
-1 -0.24144357 0.4220792 0 0.2857143
-0.9047619 -0.18778948 0.343393 0.047619052 0.3333333
-1 -0.18778946 0.34339294 0 0.33333334
-0.9047619 -0.13413535 0.26470673 0.047619052 0.38095236
-1 -0.13413532 0.26470667 0 0.3809524
-0.9047619 -0.08048121 0.18602043 0.047619052 0.4285714
-1 -0.080481194 0.18602042 0 0.42857143
-0.9047619 -0.026827073 0.10733417 0.047619052 0.47619048
-1 -0.026827063 0.10733415 0 0.47619048
-0.9047619 0.026827063 0.028647885 0.04761905 0.52380955
-1 0.026827073 0.028647874 0 0.52380955
-0.9047619 0.080481194 -0.050038382 0.04761905 0.5714286
-1 0.08048121 -0.050038405 0 0.5714286
-0.9047619 0.13413532 -0.12872465 0.047619052 0.61904764
-1 0.13413535 -0.12872468 0 0.61904764
-0.9047619 0.18778946 -0.2074109 0.047619052 0.6666667
-1 0.18778948 -0.20741096 0 0.6666667
-0.9047619 0.24144357 -0.28609717 0.047619052 0.71428573
-1 0.2414436 -0.28609723 0 0.71428573
-0.9047619 0.2950977 -0.36478344 0.04761905 0.7619048
-1 0.29509774 -0.3647835 0 0.7619048
-0.9047619 0.34875184 -0.4434697 0.04761905 0.8095238
-1 0.34875187 -0.44346976 0 0.8095238
-0.9047619 0.40240595 -0.522156 0.04761905 0.85714287
-1 0.402406 -0.52215606 0 0.85714287
-0.9047619 0.45606008 -0.60084224 0.047619045 0.9047619
-1 0.4560601 -0.6008423 0 0.9047619
-0.8095238 -0.5633684 0.89419687 0.0952381 0
-0.8095238 -0.50971425 0.81551063 0.0952381 0.04761905
-0.8095238 -0.4560601 0.73682433 0.0952381 0.0952381
-0.8095238 -0.402406 0.6581381 0.095238104 0.14285715
-0.8095238 -0.34875187 0.5794518 0.095238104 0.1904762
-0.8095238 -0.29509774 0.50076556 0.095238104 0.23809524
-0.8095238 -0.2414436 0.42207927 0.095238104 0.28571427
-0.8095238 -0.18778948 0.343393 0.095238104 0.3333333
-0.8095238 -0.13413535 0.26470673 0.095238104 0.38095236
-0.8095238 -0.08048121 0.18602043 0.095238104 0.4285714
-0.8095238 -0.026827073 0.10733417 0.095238104 0.47619048
-0.8095238 0.026827063 0.028647885 0.0952381 0.52380955
-0.8095238 0.080481194 -0.050038382 0.0952381 0.5714286
-0.8095238 0.13413532 -0.12872465 0.095238104 0.61904764
-0.8095238 0.18778946 -0.2074109 0.095238104 0.6666667
-0.8095238 0.24144357 -0.28609717 0.095238104 0.71428573
-0.8095238 0.2950977 -0.36478344 0.0952381 0.7619048
-0.8095238 0.34875184 -0.4434697 0.0952381 0.8095238
-0.8095238 0.40240595 -0.522156 0.0952381 0.85714287
-0.8095238 0.45606008 -0.60084224 0.09523809 0.9047619
-0.71428573 -0.5633684 0.89419687 0.14285715 0
-0.71428573 -0.50971425 0.81551063 0.14285715 0.04761905
-0.71428573 -0.4560601 0.73682433 0.14285715 0.0952381
-0.71428573 -0.402406 0.6581381 0.14285715 0.14285715
-0.71428573 -0.34875187 0.5794518 0.14285715 0.1904762
-0.71428573 -0.29509774 0.50076556 0.14285715 0.23809524
-0.71428573 -0.2414436 0.42207927 0.14285715 0.28571427
-0.71428573 -0.18778948 0.343393 0.14285715 0.3333333
-0.71428573 -0.13413535 0.26470673 0.14285713 0.38095236
-0.71428573 -0.08048121 0.18602043 0.14285713 0.4285714
-0.71428573 -0.026827073 0.10733417 0.14285713 0.47619048
-0.71428573 0.026827063 0.028647885 0.14285713 0.52380955
-0.71428573 0.080481194 -0.050038382 0.14285713 0.5714286
-0.71428573 0.13413532 -0.12872465 0.14285713 0.61904764
-0.71428573 0.18778946 -0.2074109 0.14285713 0.6666667
-0.71428573 0.24144357 -0.28609717 0.14285713 0.71428573
-0.71428573 0.2950977 -0.36478344 0.14285713 0.7619048
-0.71428573 0.34875184 -0.4434697 0.14285713 0.8095238
-0.71428573 0.40240595 -0.522156 0.14285713 0.85714287
-0.71428573 0.45606008 -0.60084224 0.14285713 0.9047619
-0.61904764 -0.5633684 0.89419687 0.1904762 0
-0.61904764 -0.50971425 0.81551063 0.1904762 0.04761905
-0.61904764 -0.4560601 0.73682433 0.1904762 0.0952381
-0.61904764 -0.402406 0.6581381 0.19047621 0.14285715
-0.61904764 -0.34875187 0.5794518 0.19047621 0.1904762
-0.61904764 -0.29509774 0.50076556 0.19047621 0.23809524
-0.61904764 -0.2414436 0.42207927 0.19047621 0.28571427
-0.61904764 -0.18778948 0.343393 0.19047621 0.3333333
-0.61904764 -0.13413535 0.26470673 0.19047621 0.38095236
-0.61904764 -0.08048121 0.18602043 0.19047621 0.4285714
-0.61904764 -0.026827073 0.10733417 0.19047621 0.47619048
-0.61904764 0.026827063 0.028647885 0.1904762 0.52380955
-0.61904764 0.080481194 -0.050038382 0.1904762 0.5714286
-0.61904764 0.13413532 -0.12872465 0.19047621 0.61904764
-0.61904764 0.18778946 -0.2074109 0.19047621 0.6666667
-0.61904764 0.24144357 -0.28609717 0.19047621 0.71428573
-0.61904764 0.2950977 -0.36478344 0.1904762 0.7619048
-0.61904764 0.34875184 -0.4434697 0.1904762 0.8095238
-0.61904764 0.40240595 -0.522156 0.1904762 0.85714287
-0.61904764 0.45606008 -0.60084224 0.19047618 0.9047619
-0.52380955 -0.5633684 0.89419687 0.23809524 0
-0.52380955 -0.50971425 0.81551063 0.23809525 0.04761905
-0.52380955 -0.4560601 0.73682433 0.23809525 0.0952381
-0.52380955 -0.402406 0.6581381 0.23809525 0.14285715
-0.52380955 -0.34875187 0.5794518 0.23809524 0.1904762
-0.52380955 -0.29509774 0.50076556 0.23809524 0.23809524
-0.52380955 -0.2414436 0.42207927 0.23809524 0.28571427
-0.52380955 -0.18778948 0.343393 0.23809524 0.3333333
-0.52380955 -0.13413535 0.26470673 0.23809522 0.38095236
-0.52380955 -0.08048121 0.18602043 0.23809522 0.4285714
-0.52380955 -0.026827073 0.10733417 0.23809522 0.47619048
-0.52380955 0.026827063 0.028647885 0.23809522 0.52380955
-0.52380955 0.080481194 -0.050038382 0.23809522 0.5714286
-0.52380955 0.13413532 -0.12872465 0.23809522 0.61904764
-0.52380955 0.18778946 -0.2074109 0.23809522 0.6666667
-0.52380955 0.24144357 -0.28609717 0.23809522 0.71428573
-0.52380955 0.2950977 -0.36478344 0.23809522 0.7619048
-0.52380955 0.34875184 -0.4434697 0.23809522 0.8095238
-0.52380955 0.40240595 -0.522156 0.23809522 0.85714287
-0.52380955 0.45606008 -0.60084224 0.23809522 0.9047619
-0.42857146 -0.5633684 0.89419687 0.28571427 0
-0.42857146 -0.50971425 0.81551063 0.28571427 0.04761905
-0.42857146 -0.4560601 0.73682433 0.28571427 0.0952381
-0.42857146 -0.402406 0.6581381 0.28571427 0.14285715
-0.42857146 -0.34875187 0.5794518 0.28571427 0.1904762
-0.42857146 -0.29509774 0.50076556 0.28571427 0.23809524
-0.42857146 -0.2414436 0.42207927 0.28571427 0.28571427
-0.42857146 -0.18778948 0.343393 0.28571427 0.3333333
-0.42857146 -0.13413535 0.26470673 0.28571424 0.38095236
-0.42857146 -0.08048121 0.18602043 0.28571424 0.4285714
-0.42857146 -0.026827073 0.10733417 0.28571424 0.47619048
-0.42857146 0.026827063 0.028647885 0.28571424 0.52380955
-0.42857146 0.080481194 -0.050038382 0.28571424 0.5714286
-0.42857146 0.13413532 -0.12872465 0.28571424 0.61904764
-0.42857146 0.18778946 -0.2074109 0.28571424 0.6666667
-0.42857146 0.24144357 -0.28609717 0.28571424 0.71428573
-0.42857146 0.2950977 -0.36478344 0.28571424 0.7619048
-0.42857146 0.34875184 -0.4434697 0.28571427 0.8095238
-0.42857146 0.40240595 -0.522156 0.28571427 0.85714287
-0.42857143 0.45606008 -0.60084224 0.28571427 0.9047619
-0.33333337 -0.5633684 0.89419687 0.3333333 0
-0.33333337 -0.50971425 0.81551063 0.3333333 0.04761905
-0.33333337 -0.4560601 0.73682433 0.3333333 0.0952381
-0.33333337 -0.402406 0.6581381 0.3333333 0.14285715
-0.33333337 -0.34875187 0.5794518 0.33333328 0.1904762
-0.33333337 -0.29509774 0.50076556 0.33333328 0.23809524
-0.33333337 -0.2414436 0.42207927 0.33333328 0.28571427
-0.33333337 -0.18778948 0.343393 0.33333328 0.3333333
-0.33333337 -0.13413535 0.26470673 0.33333328 0.38095236
-0.33333337 -0.08048121 0.18602043 0.33333328 0.4285714
-0.33333337 -0.026827073 0.10733417 0.3333333 0.47619048
-0.33333337 0.026827063 0.028647885 0.3333333 0.52380955
-0.33333337 0.080481194 -0.050038382 0.3333333 0.5714286
-0.33333337 0.13413532 -0.12872465 0.3333333 0.61904764
-0.33333337 0.18778946 -0.2074109 0.3333333 0.6666667
-0.33333337 0.24144357 -0.28609717 0.3333333 0.71428573
-0.33333337 0.2950977 -0.36478344 0.3333333 0.7619048
-0.33333337 0.34875184 -0.4434697 0.3333333 0.8095238
-0.33333337 0.40240595 -0.522156 0.3333333 0.85714287
-0.33333334 0.45606008 -0.60084224 0.3333333 0.9047619
-0.23809527 -0.5633684 0.89419687 0.38095236 0
-0.23809527 -0.50971425 0.81551063 0.38095236 0.04761905
-0.23809527 -0.4560601 0.73682433 0.38095236 0.0952381
-0.23809527 -0.402406 0.6581381 0.3809524 0.14285715
-0.23809527 -0.34875187 0.5794518 0.3809524 0.1904762
-0.23809527 -0.29509774 0.50076556 0.3809524 0.23809524
-0.23809527 -0.2414436 0.42207927 0.3809524 0.28571427
-0.23809527 -0.18778948 0.343393 0.3809524 0.3333333
-0.23809527 -0.13413535 0.26470673 0.3809524 0.38095236
-0.23809527 -0.08048121 0.18602043 0.3809524 0.4285714
-0.23809527 -0.026827073 0.10733417 0.3809524 0.47619048
-0.23809527 0.026827063 0.028647885 0.38095236 0.52380955
-0.23809527 0.080481194 -0.050038382 0.38095236 0.5714286
-0.23809527 0.13413532 -0.12872465 0.38095236 0.61904764
-0.23809527 0.18778946 -0.2074109 0.38095236 0.6666667
-0.23809527 0.24144357 -0.28609717 0.3809524 0.71428573
-0.23809525 0.2950977 -0.36478344 0.3809524 0.7619048
-0.23809525 0.34875184 -0.4434697 0.3809524 0.8095238
-0.23809525 0.40240595 -0.522156 0.3809524 0.85714287
-0.23809524 0.45606008 -0.60084224 0.38095236 0.9047619
-0.14285716 -0.5633684 0.89419687 0.4285714 0
-0.14285716 -0.50971425 0.81551063 0.4285714 0.04761905
-0.14285716 -0.4560601 0.73682433 0.4285714 0.0952381
-0.14285716 -0.402406 0.6581381 0.4285714 0.14285715
-0.14285716 -0.34875187 0.5794518 0.4285714 0.1904762
-0.14285716 -0.29509774 0.50076556 0.4285714 0.23809524
-0.14285716 -0.2414436 0.42207927 0.4285714 0.28571427
-0.14285716 -0.18778948 0.343393 0.4285714 0.3333333
-0.14285716 -0.13413535 0.26470673 0.4285714 0.38095236
-0.14285716 -0.08048121 0.18602043 0.4285714 0.4285714
-0.14285716 -0.026827073 0.10733417 0.42857143 0.47619048
-0.14285716 0.026827063 0.028647885 0.42857143 0.52380955
-0.14285716 0.080481194 -0.050038382 0.42857143 0.5714286
-0.14285716 0.13413532 -0.12872465 0.42857143 0.61904764
-0.14285716 0.18778946 -0.2074109 0.42857143 0.6666667
-0.14285716 0.24144357 -0.28609717 0.42857143 0.71428573
-0.14285716 0.2950977 -0.36478344 0.42857143 0.7619048
-0.14285716 0.34875184 -0.4434697 0.42857143 0.8095238
-0.14285716 0.40240595 -0.522156 0.42857143 0.85714287
-0.14285715 0.45606008 -0.60084224 0.4285714 0.9047619
-0.04761906 -0.5633684 0.89419687 0.47619048 0
-0.04761906 -0.50971425 0.81551063 0.4761905 0.04761905
-0.04761906 -0.4560601 0.73682433 0.4761905 0.0952381
-0.04761906 -0.402406 0.6581381 0.4761905 0.14285715
-0.04761906 -0.34875187 0.5794518 0.47619048 0.1904762
-0.04761906 -0.29509774 0.50076556 0.47619048 0.23809524
-0.04761906 -0.2414436 0.42207927 0.47619048 0.28571427
-0.04761906 -0.18778948 0.343393 0.47619048 0.3333333
-0.04761906 -0.13413535 0.26470673 0.47619045 0.38095236
-0.04761906 -0.08048121 0.18602043 0.47619045 0.4285714
-0.04761906 -0.026827073 0.10733417 0.47619045 0.47619048
-0.04761906 0.026827063 0.028647885 0.47619045 0.52380955
-0.04761906 0.080481194 -0.050038382 0.47619045 0.5714286
-0.04761906 0.13413532 -0.12872465 0.47619045 0.61904764
-0.04761906 0.18778946 -0.2074109 0.47619045 0.6666667
-0.047619056 0.24144357 -0.28609717 0.47619045 0.71428573
-0.047619052 0.2950977 -0.36478344 0.47619045 0.7619048
-0.047619052 0.34875184 -0.4434697 0.47619045 0.8095238
-0.047619052 0.40240595 -0.522156 0.47619045 0.85714287
-0.04761905 0.45606008 -0.60084224 0.47619045 0.9047619
0.047619045 -0.5633684 0.89419687 0.52380955 0
0.047619045 -0.50971425 0.81551063 0.52380955 0.04761905
0.047619045 -0.4560601 0.73682433 0.52380955 0.0952381
0.047619045 -0.402406 0.6581381 0.52380955 0.14285715
0.047619045 -0.34875187 0.5794518 0.52380955 0.1904762
0.047619045 -0.29509774 0.50076556 0.52380955 0.23809524
0.047619045 -0.2414436 0.42207927 0.52380955 0.28571427
0.047619045 -0.18778948 0.343393 0.52380955 0.3333333
0.047619045 -0.13413535 0.26470673 0.52380955 0.38095236
0.047619045 -0.08048121 0.18602043 0.52380955 0.4285714
0.047619045 -0.026827073 0.10733417 0.52380955 0.47619048
0.047619045 0.026827063 0.028647885 0.52380955 0.52380955
0.047619045 0.080481194 -0.050038382 0.52380955 0.5714286
0.047619045 0.13413532 -0.12872465 0.52380955 0.61904764
0.047619045 0.18778946 -0.2074109 0.52380955 0.6666667
0.04761905 0.24144357 -0.28609717 0.52380955 0.71428573
0.047619052 0.2950977 -0.36478344 0.52380955 0.7619048
0.047619052 0.34875184 -0.4434697 0.52380955 0.8095238
0.047619052 0.40240595 -0.522156 0.52380955 0.85714287
0.047619056 0.45606008 -0.60084224 0.52380955 0.9047619
0.14285713 -0.5633684 0.89419687 0.5714286 0
0.14285713 -0.50971425 0.81551063 0.5714286 0.04761905
0.14285713 -0.4560601 0.73682433 0.5714286 0.0952381
0.14285713 -0.402406 0.6581381 0.5714286 0.14285715
0.14285713 -0.34875187 0.5794518 0.5714286 0.1904762
0.14285713 -0.29509774 0.50076556 0.5714286 0.23809524
0.14285713 -0.2414436 0.42207927 0.5714286 0.28571427
0.14285713 -0.18778948 0.343393 0.5714286 0.3333333
0.14285713 -0.13413535 0.26470673 0.57142854 0.38095236
0.14285713 -0.08048121 0.18602043 0.57142854 0.4285714
0.14285713 -0.026827073 0.10733417 0.57142854 0.47619048
0.14285713 0.026827063 0.028647885 0.57142854 0.52380955
0.14285713 0.080481194 -0.050038382 0.57142854 0.5714286
0.14285713 0.13413532 -0.12872465 0.57142854 0.61904764
0.14285713 0.18778946 -0.2074109 0.57142854 0.6666667
0.14285713 0.24144357 -0.28609717 0.57142854 0.71428573
0.14285713 0.2950977 -0.36478344 0.57142854 0.7619048
0.14285713 0.34875184 -0.4434697 0.57142854 0.8095238
0.14285713 0.40240595 -0.522156 0.57142854 0.85714287
0.14285715 0.45606008 -0.60084224 0.57142854 0.9047619
0.23809522 -0.5633684 0.89419687 0.61904764 0
0.23809522 -0.50971425 0.81551063 0.61904764 0.04761905
0.23809522 -0.4560601 0.73682433 0.61904764 0.0952381
0.23809522 -0.402406 0.6581381 0.61904764 0.14285715
0.23809522 -0.34875187 0.5794518 0.61904764 0.1904762
0.23809522 -0.29509774 0.50076556 0.61904764 0.23809524
0.23809522 -0.2414436 0.42207927 0.61904764 0.28571427
0.23809522 -0.18778948 0.343393 0.61904764 0.3333333
0.23809522 -0.13413535 0.26470673 0.61904764 0.38095236
0.23809522 -0.08048121 0.18602043 0.61904764 0.4285714
0.23809522 -0.026827073 0.10733417 0.61904764 0.47619048
0.23809522 0.026827063 0.028647885 0.6190476 0.52380955
0.23809522 0.080481194 -0.050038382 0.6190476 0.5714286
0.23809522 0.13413532 -0.12872465 0.61904764 0.61904764
0.23809522 0.18778946 -0.2074109 0.61904764 0.6666667
0.23809522 0.24144357 -0.28609717 0.61904764 0.71428573
0.23809522 0.2950977 -0.36478344 0.61904764 0.7619048
0.23809524 0.34875184 -0.4434697 0.61904764 0.8095238
0.23809525 0.40240595 -0.522156 0.61904764 0.85714287
0.23809525 0.45606008 -0.60084224 0.61904764 0.9047619
0.3333333 -0.5633684 0.89419687 0.6666667 0
0.3333333 -0.50971425 0.81551063 0.6666667 0.04761905
0.3333333 -0.4560601 0.73682433 0.6666667 0.0952381
0.3333333 -0.402406 0.6581381 0.6666667 0.14285715
0.3333333 -0.34875187 0.5794518 0.6666666 0.1904762
0.3333333 -0.29509774 0.50076556 0.6666666 0.23809524
0.3333333 -0.2414436 0.42207927 0.6666666 0.28571427
0.3333333 -0.18778948 0.343393 0.6666666 0.3333333
0.3333333 -0.13413535 0.26470673 0.6666666 0.38095236
0.3333333 -0.08048121 0.18602043 0.6666666 0.4285714
0.3333333 -0.026827073 0.10733417 0.6666667 0.47619048
0.3333333 0.026827063 0.028647885 0.6666667 0.52380955
0.3333333 0.080481194 -0.050038382 0.6666667 0.5714286
0.3333333 0.13413532 -0.12872465 0.6666667 0.61904764
0.3333333 0.18778946 -0.2074109 0.6666667 0.6666667
0.3333333 0.24144357 -0.28609717 0.6666667 0.71428573
0.3333333 0.2950977 -0.36478344 0.6666667 0.7619048
0.3333333 0.34875184 -0.4434697 0.6666667 0.8095238
0.3333333 0.40240595 -0.522156 0.6666667 0.85714287
0.33333334 0.45606008 -0.60084224 0.6666666 0.9047619
0.4285714 -0.5633684 0.89419687 0.71428573 0
0.4285714 -0.50971425 0.81551063 0.71428573 0.04761905
0.4285714 -0.4560601 0.73682433 0.71428573 0.0952381
0.4285714 -0.402406 0.6581381 0.71428573 0.14285715
0.4285714 -0.34875187 0.5794518 0.71428573 0.1904762
0.4285714 -0.29509774 0.50076556 0.71428573 0.23809524
0.4285714 -0.2414436 0.42207927 0.71428573 0.28571427
0.4285714 -0.18778948 0.343393 0.71428573 0.3333333
0.4285714 -0.13413535 0.26470673 0.7142857 0.38095236
0.4285714 -0.08048121 0.18602043 0.7142857 0.4285714
0.4285714 -0.026827073 0.10733417 0.7142857 0.47619048
0.4285714 0.026827063 0.028647885 0.7142857 0.52380955
0.4285714 0.080481194 -0.050038382 0.7142857 0.5714286
0.4285714 0.13413532 -0.12872465 0.7142857 0.61904764
0.4285714 0.18778946 -0.2074109 0.7142857 0.6666667
0.4285714 0.24144357 -0.28609717 0.7142857 0.71428573
0.4285714 0.2950977 -0.36478344 0.7142857 0.7619048
0.4285714 0.34875184 -0.4434697 0.7142857 0.8095238
0.4285714 0.40240595 -0.522156 0.71428573 0.85714287
0.42857143 0.45606008 -0.60084224 0.71428573 0.9047619
0.5238095 -0.5633684 0.89419687 0.7619048 0
0.5238095 -0.50971425 0.81551063 0.7619048 0.04761905
0.5238095 -0.4560601 0.73682433 0.7619048 0.0952381
0.5238095 -0.402406 0.6581381 0.76190484 0.14285715
0.5238095 -0.34875187 0.5794518 0.76190484 0.1904762
0.5238095 -0.29509774 0.50076556 0.76190484 0.23809524
0.5238095 -0.2414436 0.42207927 0.76190484 0.28571427
0.5238095 -0.18778948 0.343393 0.76190484 0.3333333
0.5238095 -0.13413535 0.26470673 0.76190484 0.38095236
0.5238095 -0.08048121 0.18602043 0.76190484 0.4285714
0.5238095 -0.026827073 0.10733417 0.76190484 0.47619048
0.5238095 0.026827063 0.028647885 0.7619048 0.52380955
0.5238095 0.080481194 -0.050038382 0.7619048 0.5714286
0.5238095 0.13413532 -0.12872465 0.76190484 0.61904764
0.5238095 0.18778946 -0.2074109 0.76190484 0.6666667
0.5238095 0.24144357 -0.28609717 0.76190484 0.71428573
0.5238095 0.2950977 -0.36478344 0.7619048 0.7619048
0.5238095 0.34875184 -0.4434697 0.7619048 0.8095238
0.5238095 0.40240595 -0.522156 0.7619048 0.85714287
0.5238095 0.45606008 -0.60084224 0.7619047 0.9047619
0.6190476 -0.5633684 0.89419687 0.8095238 0
0.6190476 -0.50971425 0.81551063 0.8095238 0.04761905
0.6190476 -0.4560601 0.73682433 0.8095238 0.0952381
0.6190476 -0.402406 0.6581381 0.8095239 0.14285715
0.6190476 -0.34875187 0.5794518 0.8095239 0.1904762
0.6190476 -0.29509774 0.50076556 0.8095239 0.23809524
0.6190476 -0.2414436 0.42207927 0.8095239 0.28571427
0.6190476 -0.18778948 0.343393 0.8095239 0.3333333
0.6190476 -0.13413535 0.26470673 0.8095238 0.38095236
0.6190476 -0.08048121 0.18602043 0.8095238 0.4285714
0.6190476 -0.026827073 0.10733417 0.8095238 0.47619048
0.6190476 0.026827063 0.028647885 0.8095238 0.52380955
0.6190476 0.080481194 -0.050038382 0.8095238 0.5714286
0.6190476 0.13413532 -0.12872465 0.8095238 0.61904764
0.6190476 0.18778946 -0.2074109 0.8095238 0.6666667
0.6190476 0.24144357 -0.28609717 0.8095238 0.71428573
0.6190476 0.2950977 -0.36478344 0.8095238 0.7619048
0.6190476 0.34875184 -0.4434697 0.8095238 0.8095238
0.6190476 0.40240595 -0.522156 0.8095238 0.85714287
0.6190476 0.45606008 -0.60084224 0.8095238 0.9047619
0.7142857 -0.5633684 0.89419687 0.85714287 0
0.7142857 -0.50971425 0.81551063 0.85714287 0.04761905
0.7142857 -0.4560601 0.73682433 0.85714287 0.0952381
0.7142857 -0.402406 0.6581381 0.85714287 0.14285715
0.7142857 -0.34875187 0.5794518 0.85714287 0.1904762
0.7142857 -0.29509774 0.50076556 0.85714287 0.23809524
0.7142857 -0.2414436 0.42207927 0.85714287 0.28571427
0.7142857 -0.18778948 0.343393 0.85714287 0.3333333
0.7142857 -0.13413535 0.26470673 0.85714287 0.38095236
0.7142857 -0.08048121 0.18602043 0.85714287 0.4285714
0.7142857 -0.026827073 0.10733417 0.8571429 0.47619048
0.7142857 0.026827063 0.028647885 0.8571429 0.52380955
0.7142857 0.080481194 -0.050038382 0.85714287 0.5714286
0.7142857 0.13413532 -0.12872465 0.85714287 0.61904764
0.7142857 0.18778946 -0.2074109 0.85714287 0.6666667
0.7142857 0.24144357 -0.28609717 0.85714287 0.71428573
0.7142857 0.2950977 -0.36478344 0.85714287 0.7619048
0.7142857 0.34875184 -0.4434697 0.85714287 0.8095238
0.7142857 0.40240595 -0.522156 0.85714287 0.85714287
0.7142857 0.45606008 -0.60084224 0.8571428 0.9047619
0.80952376 -0.5633684 0.89419687 0.9047619 0
0.80952376 -0.50971425 0.81551063 0.9047619 0.04761905
0.80952376 -0.4560601 0.73682433 0.9047619 0.0952381
0.80952376 -0.402406 0.6581381 0.9047619 0.14285715
0.80952376 -0.34875187 0.5794518 0.90476185 0.1904762
0.80952376 -0.29509774 0.50076556 0.90476185 0.23809524
0.80952376 -0.2414436 0.42207927 0.90476185 0.28571427
0.80952376 -0.18778948 0.343393 0.90476185 0.3333333
0.80952376 -0.13413535 0.26470673 0.90476185 0.38095236
0.80952376 -0.08048121 0.18602043 0.90476185 0.4285714
0.80952376 -0.026827073 0.10733417 0.9047619 0.47619048
0.80952376 0.026827063 0.028647885 0.90476185 0.52380955
0.80952376 0.080481194 -0.050038382 0.90476185 0.5714286
0.80952376 0.13413532 -0.12872465 0.9047619 0.61904764
0.80952376 0.18778946 -0.2074109 0.9047619 0.6666667
0.80952376 0.24144357 -0.28609717 0.9047619 0.71428573
0.80952376 0.2950977 -0.36478344 0.9047619 0.7619048
0.80952376 0.34875184 -0.4434697 0.9047619 0.8095238
0.80952376 0.40240595 -0.522156 0.9047619 0.85714287
0.80952376 0.45606008 -0.60084224 0.9047619 0.9047619
0.9047619 -0.5633684 0.89419687 0.95238096 0
0.9047619 -0.50971425 0.81551063 0.952381 0.04761905
0.9047619 -0.4560601 0.73682433 0.952381 0.0952381
0.9047619 -0.402406 0.6581381 0.952381 0.14285715
0.9047619 -0.34875187 0.5794518 0.95238096 0.1904762
0.9047619 -0.29509774 0.50076556 0.95238096 0.23809524
0.9047619 -0.2414436 0.42207927 0.95238096 0.28571427
0.9047619 -0.18778948 0.343393 0.95238096 0.3333333
0.9047619 -0.13413535 0.26470673 0.9523809 0.38095236
0.9047619 -0.08048121 0.18602043 0.9523809 0.4285714
0.9047619 -0.026827073 0.10733417 0.9523809 0.47619048
0.9047619 0.026827063 0.028647885 0.9523809 0.52380955
0.9047619 0.080481194 -0.050038382 0.9523809 0.5714286
0.9047619 0.13413532 -0.12872465 0.9523809 0.61904764
0.9047619 0.18778946 -0.2074109 0.9523809 0.6666667
0.9047619 0.24144357 -0.28609717 0.9523809 0.71428573
0.9047619 0.2950977 -0.36478344 0.9523809 0.7619048
0.9047619 0.34875184 -0.4434697 0.9523809 0.8095238
0.9047619 0.40240595 -0.522156 0.9523809 0.85714287
0.9047619 0.45606008 -0.60084224 0.9523809 0.9047619
1 -0.5633684 0.89419687 1 0
1 -0.50971425 0.81551063 1 0.04761905
1 -0.4560601 0.73682433 1 0.0952381
1 -0.402406 0.6581381 1 0.14285715
1 -0.34875187 0.5794518 1 0.1904762
1 -0.29509774 0.50076556 1 0.23809524
1 -0.2414436 0.42207927 1 0.28571427
1 -0.18778948 0.343393 1 0.3333333
1 -0.13413535 0.26470673 1 0.38095236
1 -0.08048121 0.18602043 1 0.4285714
1 -0.026827073 0.10733417 1 0.47619048
1 0.026827063 0.028647885 1 0.52380955
1 0.080481194 -0.050038382 1 0.5714286
1 0.13413532 -0.12872465 1 0.61904764
1 0.18778946 -0.2074109 1 0.6666667
1 0.24144357 -0.28609717 1 0.71428573
1 0.2950977 -0.36478344 1 0.7619048
1 0.34875184 -0.4434697 1 0.8095238
1 0.40240595 -0.522156 1 0.85714287
1 0.45606008 -0.60084224 1 0.9047619
4 0 1 2 3
4 4 5 6 7
4 5 8 9 6
4 8 10 11 9
4 10 12 13 11
4 12 14 15 13
4 14 16 17 15
4 16 18 19 17
4 18 20 21 19
4 20 22 23 21
4 22 24 25 23
4 24 26 27 25
4 26 28 29 27
4 28 30 31 29
4 30 32 33 31
4 32 34 35 33
4 34 36 37 35
4 36 38 39 37
4 38 40 41 39
4 40 42 43 41
4 42 0 3 43
4 44 45 46 47
4 47 46 48 49
4 49 48 50 51
4 51 50 52 53
4 53 52 54 55
4 55 54 56 57
4 57 56 58 59
4 59 58 60 61
4 61 60 62 63
4 63 62 64 65
4 65 64 66 67
4 67 66 68 69
4 69 68 70 71
4 71 70 72 73
4 73 72 74 75
4 75 74 76 77
4 77 76 78 79
4 79 78 80 81
4 81 80 82 83
4 83 82 5 4
4 45 84 85 46
4 46 85 86 48
4 48 86 87 50
4 50 87 88 52
4 52 88 89 54
4 54 89 90 56
4 56 90 91 58
4 58 91 92 60
4 60 92 93 62
4 62 93 94 64
4 64 94 95 66
4 66 95 96 68
4 68 96 97 70
4 70 97 98 72
4 72 98 99 74
4 74 99 100 76
4 76 100 101 78
4 78 101 102 80
4 80 102 103 82
4 82 103 8 5
4 84 104 105 85
4 85 105 106 86
4 86 106 107 87
4 87 107 108 88
4 88 108 109 89
4 89 109 110 90
4 90 110 111 91
4 91 111 112 92
4 92 112 113 93
4 93 113 114 94
4 94 114 115 95
4 95 115 116 96
4 96 116 117 97
4 97 117 118 98
4 98 118 119 99
4 99 119 120 100
4 100 120 121 101
4 101 121 122 102
4 102 122 123 103
4 103 123 10 8
4 104 124 125 105
4 105 125 126 106
4 106 126 127 107
4 107 127 128 108
4 108 128 129 109
4 109 129 130 110
4 110 130 131 111
4 111 131 132 112
4 112 132 133 113
4 113 133 134 114
4 114 134 135 115
4 115 135 136 116
4 116 136 137 117
4 117 137 138 118
4 118 138 139 119
4 119 139 140 120
4 120 140 141 121
4 121 141 142 122
4 122 142 143 123
4 123 143 12 10
4 124 144 145 125
4 125 145 146 126
4 126 146 147 127
4 127 147 148 128
4 128 148 149 129
4 129 149 150 130
4 130 150 151 131
4 131 151 152 132
4 132 152 153 133
4 133 153 154 134
4 134 154 155 135
4 135 155 156 136
4 136 156 157 137
4 137 157 158 138
4 138 158 159 139
4 139 159 160 140
4 140 160 161 141
4 141 161 162 142
4 142 162 163 143
4 143 163 14 12
4 144 164 165 145
4 145 165 166 146
4 146 166 167 147
4 147 167 168 148
4 148 168 169 149
4 149 169 170 150
4 150 170 171 151
4 151 171 172 152
4 152 172 173 153
4 153 173 174 154
4 154 174 175 155
4 155 175 176 156
4 156 176 177 157
4 157 177 178 158
4 158 178 179 159
4 159 179 180 160
4 160 180 181 161
4 161 181 182 162
4 162 182 183 163
4 163 183 16 14
4 164 184 185 165
4 165 185 186 166
4 166 186 187 167
4 167 187 188 168
4 168 188 189 169
4 169 189 190 170
4 170 190 191 171
4 171 191 192 172
4 172 192 193 173
4 173 193 194 174
4 174 194 195 175
4 175 195 196 176
4 176 196 197 177
4 177 197 198 178
4 178 198 199 179
4 179 199 200 180
4 180 200 201 181
4 181 201 202 182
4 182 202 203 183
4 183 203 18 16
4 184 204 205 185
4 185 205 206 186
4 186 206 207 187
4 187 207 208 188
4 188 208 209 189
4 189 209 210 190
4 190 210 211 191
4 191 211 212 192
4 192 212 213 193
4 193 213 214 194
4 194 214 215 195
4 195 215 216 196
4 196 216 217 197
4 197 217 218 198
4 198 218 219 199
4 199 219 220 200
4 200 220 221 201
4 201 221 222 202
4 202 222 223 203
4 203 223 20 18
4 204 224 225 205
4 205 225 226 206
4 206 226 227 207
4 207 227 228 208
4 208 228 229 209
4 209 229 230 210
4 210 230 231 211
4 211 231 232 212
4 212 232 233 213
4 213 233 234 214
4 214 234 235 215
4 215 235 236 216
4 216 236 237 217
4 217 237 238 218
4 218 238 239 219
4 219 239 240 220
4 220 240 241 221
4 221 241 242 222
4 222 242 243 223
4 223 243 22 20
4 224 244 245 225
4 225 245 246 226
4 226 246 247 227
4 227 247 248 228
4 228 248 249 229
4 229 249 250 230
4 230 250 251 231
4 231 251 252 232
4 232 252 253 233
4 233 253 254 234
4 234 254 255 235
4 235 255 256 236
4 236 256 257 237
4 237 257 258 238
4 238 258 259 239
4 239 259 260 240
4 240 260 261 241
4 241 261 262 242
4 242 262 263 243
4 243 263 24 22
4 244 264 265 245
4 245 265 266 246
4 246 266 267 247
4 247 267 268 248
4 248 268 269 249
4 249 269 270 250
4 250 270 271 251
4 251 271 272 252
4 252 272 273 253
4 253 273 274 254
4 254 274 275 255
4 255 275 276 256
4 256 276 277 257
4 257 277 278 258
4 258 278 279 259
4 259 279 280 260
4 260 280 281 261
4 261 281 282 262
4 262 282 283 263
4 263 283 26 24
4 264 284 285 265
4 265 285 286 266
4 266 286 287 267
4 267 287 288 268
4 268 288 289 269
4 269 289 290 270
4 270 290 291 271
4 271 291 292 272
4 272 292 293 273
4 273 293 294 274
4 274 294 295 275
4 275 295 296 276
4 276 296 297 277
4 277 297 298 278
4 278 298 299 279
4 279 299 300 280
4 280 300 301 281
4 281 301 302 282
4 282 302 303 283
4 283 303 28 26
4 284 304 305 285
4 285 305 306 286
4 286 306 307 287
4 287 307 308 288
4 288 308 309 289
4 289 309 310 290
4 290 310 311 291
4 291 311 312 292
4 292 312 313 293
4 293 313 314 294
4 294 314 315 295
4 295 315 316 296
4 296 316 317 297
4 297 317 318 298
4 298 318 319 299
4 299 319 320 300
4 300 320 321 301
4 301 321 322 302
4 302 322 323 303
4 303 323 30 28
4 304 324 325 305
4 305 325 326 306
4 306 326 327 307
4 307 327 328 308
4 308 328 329 309
4 309 329 330 310
4 310 330 331 311
4 311 331 332 312
4 312 332 333 313
4 313 333 334 314
4 314 334 335 315
4 315 335 336 316
4 316 336 337 317
4 317 337 338 318
4 318 338 339 319
4 319 339 340 320
4 320 340 341 321
4 321 341 342 322
4 322 342 343 323
4 323 343 32 30
4 324 344 345 325
4 325 345 346 326
4 326 346 347 327
4 327 347 348 328
4 328 348 349 329
4 329 349 350 330
4 330 350 351 331
4 331 351 352 332
4 332 352 353 333
4 333 353 354 334
4 334 354 355 335
4 335 355 356 336
4 336 356 357 337
4 337 357 358 338
4 338 358 359 339
4 339 359 360 340
4 340 360 361 341
4 341 361 362 342
4 342 362 363 343
4 343 363 34 32
4 344 364 365 345
4 345 365 366 346
4 346 366 367 347
4 347 367 368 348
4 348 368 369 349
4 349 369 370 350
4 350 370 371 351
4 351 371 372 352
4 352 372 373 353
4 353 373 374 354
4 354 374 375 355
4 355 375 376 356
4 356 376 377 357
4 357 377 378 358
4 358 378 379 359
4 359 379 380 360
4 360 380 381 361
4 361 381 382 362
4 362 382 383 363
4 363 383 36 34
4 364 384 385 365
4 365 385 386 366
4 366 386 387 367
4 367 387 388 368
4 368 388 389 369
4 369 389 390 370
4 370 390 391 371
4 371 391 392 372
4 372 392 393 373
4 373 393 394 374
4 374 394 395 375
4 375 395 396 376
4 376 396 397 377
4 377 397 398 378
4 378 398 399 379
4 379 399 400 380
4 380 400 401 381
4 381 401 402 382
4 382 402 403 383
4 383 403 38 36
4 384 404 405 385
4 385 405 406 386
4 386 406 407 387
4 387 407 408 388
4 388 408 409 389
4 389 409 410 390
4 390 410 411 391
4 391 411 412 392
4 392 412 413 393
4 393 413 414 394
4 394 414 415 395
4 395 415 416 396
4 396 416 417 397
4 397 417 418 398
4 398 418 419 399
4 399 419 420 400
4 400 420 421 401
4 401 421 422 402
4 402 422 423 403
4 403 423 40 38
4 404 424 425 405
4 405 425 426 406
4 406 426 427 407
4 407 427 428 408
4 408 428 429 409
4 409 429 430 410
4 410 430 431 411
4 411 431 432 412
4 412 432 433 413
4 413 433 434 414
4 414 434 435 415
4 415 435 436 416
4 416 436 437 417
4 417 437 438 418
4 418 438 439 419
4 419 439 440 420
4 420 440 441 421
4 421 441 442 422
4 422 442 443 423
4 423 443 42 40
4 424 444 445 425
4 425 445 446 426
4 426 446 447 427
4 427 447 448 428
4 428 448 449 429
4 429 449 450 430
4 430 450 451 431
4 431 451 452 432
4 432 452 453 433
4 433 453 454 434
4 434 454 455 435
4 435 455 456 436
4 436 456 457 437
4 437 457 458 438
4 438 458 459 439
4 439 459 460 440
4 440 460 461 441
4 441 461 462 442
4 442 462 463 443
4 443 463 0 42
4 444 464 465 445
4 445 465 466 446
4 446 466 467 447
4 447 467 468 448
4 448 468 469 449
4 449 469 470 450
4 450 470 471 451
4 451 471 472 452
4 452 472 473 453
4 453 473 474 454
4 454 474 475 455
4 455 475 476 456
4 456 476 477 457
4 457 477 478 458
4 458 478 479 459
4 459 479 480 460
4 460 480 481 461
4 461 481 482 462
4 462 482 483 463
4 463 483 1 0
