ply
format ascii 1.0
comment Created in Blender version 4.3.2
element vertex 44
property float x
property float y
property float z
property float s
property float t
element face 68
property list uchar uint vertex_indices
end_header
0.1009747 0.1009747 0.36449885 0.80860347 0.68360347
0.1009747 -0.1009747 5.6219583 0.8086035 0.56639653
0.1009747 -0.1009747 0.36449885 0.8086035 0.56639653
-0.21537685 0.21537685 0.36449885 0.625 0.75
0.3250044 0.3250044 0.25745678 0.5416666 1
-0.3250044 0.3250044 0.25745678 0.5416666 0.75
0.21537685 0.21537685 0.36449885 0.625 0
0.3250044 -0.3250044 0.25745678 0.5416666 0.25
0.3250044 0.3250044 0.25745678 0.5416666 0
-0.21537685 -0.21537685 -0.066254854 0.375 0.5
0.21537685 0.21537685 -0.066254854 0.125 0.75
0.21537685 -0.21537685 -0.066254854 0.125 0.5
-0.21537685 -0.21537685 0.36449885 0.625 0.5
-0.3250044 -0.3250044 0.25745678 0.5416666 0.5
0.21537685 -0.21537685 0.36449885 0.625 0.25
0.3250044 -0.3250044 0.04078722 0.4583333 0.25
0.21537685 -0.21537685 -0.066254854 0.375 0.25
-0.3250044 -0.3250044 0.04078722 0.4583333 0.5
-0.21537685 0.21537685 -0.066254854 0.375 0.75
-0.3250044 0.3250044 0.04078722 0.4583333 0.75
0.3250044 0.3250044 0.04078722 0.4583333 0
0.21537685 0.21537685 -0.066254854 0.375 0
0.21537685 0.21537685 -0.066254854 0.375 1
0.3250044 0.3250044 0.04078722 0.4583333 1
-0.1009747 0.1009747 0.36449885 0.6913965 0.68360347
-0.1009747 -0.1009747 0.36449885 0.69139653 0.56639653
0.21537685 0.21537685 0.36449885 0.875 0.75
0.21537685 -0.21537685 0.36449885 0.875 0.5
-0.1009747 0.1009747 5.6219583 0.6913965 0.68360347
0.1009747 0.1009747 7.870568 0.80860347 0.68360347
0.1009747 0.1009747 5.6219583 0.80860347 0.68360347
-0.1009747 -0.1009747 5.6219583 0.69139653 0.56639653
0.1009747 -0.1009747 7.870568 0.8086035 0.56639653
-0.1009747 0.1009747 7.870568 0.6913965 0.68360347
-0.1009747 -0.1009747 7.870568 0.69139653 0.56639653
-0.85779333 0.1009747 7.870568 0.6913965 0.68360347
0.85779333 -0.1009747 7.870568 0.8086035 0.56639653
-0.85779333 -0.1009747 5.6219583 0.69139653 0.56639653
-0.85779333 0.1009747 5.6219583 0.6913965 0.68360347
0.85779333 0.1009747 5.6219583 0.80860347 0.68360347
0.85779333 -0.1009747 5.6219583 0.8086035 0.56639653
0.85779333 0.1009747 7.870568 0.80860347 0.68360347
-0.85779333 -0.1009747 7.870568 0.69139653 0.56639653
0.21537685 0.21537685 0.36449885 0.625 1
3 0 1 2
3 3 4 5
3 6 7 8
3 9 10 11
3 12 5 13
3 14 13 7
3 15 9 16
3 7 17 15
3 17 18 9
3 13 19 17
3 20 16 21
3 8 15 20
3 19 22 18
3 5 23 19
3 0 3 24
3 24 12 25
3 2 26 0
3 25 27 2
3 28 29 30
3 24 30 0
3 2 31 25
3 25 28 24
3 32 33 34
3 1 34 31
3 28 35 33
3 1 36 32
3 37 35 38
3 39 36 40
3 31 38 28
3 32 41 29
3 34 37 31
3 29 39 30
3 30 40 1
3 33 42 34
3 0 30 1
3 3 43 4
3 6 14 7
3 9 18 10
3 12 3 5
3 14 12 13
3 15 17 9
3 7 13 17
3 17 19 18
3 13 5 19
3 20 15 16
3 8 7 15
3 19 23 22
3 5 4 23
3 0 26 3
3 24 3 12
3 2 27 26
3 25 12 27
3 28 33 29
3 24 28 30
3 2 1 31
3 25 31 28
3 32 29 33
3 1 32 34
3 28 38 35
3 1 40 36
3 37 42 35
3 39 41 36
3 31 37 38
3 32 36 41
3 34 42 37
3 29 41 39
3 30 39 40
3 33 35 42
