ply
format ascii 1.0
comment Created in Blender version 4.3.2
element vertex 36
property float x
property float y
property float z
property float nx
property float ny
property float nz
property float s
property float t
element face 50
property list uchar uint vertex_indices
end_header
-1.0604522 -0.4270984 0.47162297 0 0.74122924 0.67125183 0 0.8
-0.63627136 -0.7118306 0.7860383 0 0.74122924 0.67125183 0.2 1
-0.63627136 -0.4270984 0.47162297 0 0.74122924 0.67125183 0.19999999 0.8
0.63627136 -0.4270984 0.47162297 0 0.74122924 0.67125183 0.79999995 0.8
1.0604522 -0.7118306 0.7860383 0 0.74122924 0.67125183 1 1
1.0604522 -0.4270984 0.47162297 0 0.74122924 0.67125183 1 0.8
0.21209046 -0.4270984 0.47162297 0 0.74122924 0.67125183 0.6 0.8
0.63627136 -0.7118306 0.7860383 0 0.74122924 0.67125183 0.8 1
-0.21209046 -0.4270984 0.47162297 0 0.74122924 0.67125183 0.39999998 0.8
0.21209046 -0.7118306 0.7860383 0 0.74122924 0.67125183 0.6 1
-0.21209046 -0.7118306 0.7860383 0 0.74122924 0.67125183 0.4 1
0.63627136 0.7118306 -0.7860383 0 0.74122924 0.67125183 0.8 0
1.0604522 0.4270984 -0.47162297 0 0.74122924 0.67125183 1 0.2
1.0604522 0.7118306 -0.7860383 0 0.74122924 0.67125183 1 0
0.63627136 0.4270984 -0.47162297 0 0.74122924 0.67125183 0.8000001 0.2
1.0604522 0.14236614 -0.15720767 0 0.74122924 0.67125183 1 0.4
0.63627136 0.14236614 -0.15720767 0 0.74122924 0.67125183 0.8 0.4
1.0604522 -0.14236614 0.15720767 0 0.74122924 0.67125183 1 0.6
0.63627136 -0.14236614 0.15720767 0 0.74122924 0.67125183 0.79999995 0.6
0.21209046 0.7118306 -0.7860383 0 0.74122924 0.67125183 0.6 0
0.21209046 0.4270984 -0.47162297 0 0.74122924 0.67125183 0.6 0.2
0.21209046 0.14236614 -0.15720767 0 0.74122924 0.67125183 0.6 0.4
0.21209046 -0.14236614 0.15720767 0 0.74122924 0.67125183 0.6 0.6
-0.21209046 0.7118306 -0.7860383 0 0.74122924 0.67125183 0.4 0
-0.21209046 0.4270984 -0.47162297 0 0.74122924 0.67125183 0.40000004 0.2
-0.21209046 0.14236614 -0.15720767 0 0.74122924 0.67125183 0.4 0.4
-0.21209046 -0.14236614 0.15720767 0 0.74122924 0.67125183 0.39999998 0.6
-0.63627136 0.7118306 -0.7860383 0 0.74122924 0.67125183 0.2 0
-0.63627136 0.4270984 -0.47162297 0 0.74122924 0.67125183 0.20000002 0.2
-0.63627136 0.14236614 -0.15720767 0 0.74122924 0.67125183 0.2 0.4
-0.63627136 -0.14236614 0.15720767 0 0.74122924 0.67125183 0.19999999 0.6
-1.0604522 0.7118306 -0.7860383 0 0.74122924 0.67125183 0 0
-1.0604522 0.4270984 -0.47162297 0 0.74122924 0.67125183 0 0.2
-1.0604522 0.14236614 -0.15720767 0 0.74122924 0.67125183 0 0.4
-1.0604522 -0.14236614 0.15720767 0 0.74122924 0.67125183 0 0.6
-1.0604522 -0.7118306 0.7860383 0 0.74122924 0.67125183 0 1
3 0 1 2
3 3 4 5
3 6 7 3
3 8 9 6
3 2 10 8
3 11 12 13
3 14 15 12
3 16 17 15
3 18 5 17
3 19 14 11
3 20 16 14
3 21 18 16
3 22 3 18
3 23 20 19
3 24 21 20
3 25 22 21
3 26 6 22
3 27 24 23
3 28 25 24
3 29 26 25
3 30 8 26
3 31 28 27
3 32 29 28
3 33 30 29
3 34 2 30
3 0 35 1
3 3 7 4
3 6 9 7
3 8 10 9
3 2 1 10
3 11 14 12
3 14 16 15
3 16 18 17
3 18 3 5
3 19 20 14
3 20 21 16
3 21 22 18
3 22 6 3
3 23 24 20
3 24 25 21
3 25 26 22
3 26 8 6
3 27 28 24
3 28 29 25
3 29 30 26
3 30 2 8
3 31 32 28
3 32 33 29
3 33 34 30
3 34 0 2
