ply
format ascii 1.0
comment Created in Blender version 4.3.2
element vertex 103
property float x
property float y
property float z
property float nx
property float ny
property float nz
property float s
property float t
element face 116
property list uchar uint vertex_indices
end_header
-1 1 1 -0.57732844 0.57736117 0.57736117 0.875 0.5
1 -1 1 0.57732844 -0.57736117 0.57736117 0.625 0.75
1 1 1 0.5773721 0.57733935 0.57733935 0.625 0.5
-1 -1 -1 -0.57732844 -0.57736117 -0.57736117 0.375 1
1 -1 -1 0.5773721 -0.57733935 -0.57733935 0.375 0.75
-1 -1 1 -0.5773721 -0.57733935 0.57733935 0.625 0
-1 1 -1 -0.5773721 0.57733935 -0.57733935 0.375 0.25
-1 -1 -1 -0.57732844 -0.57736117 -0.57736117 0.375 0
1 1 -1 0.57732844 0.57736117 -0.57736117 0.375 0.5
-1 -1 -1 -0.57732844 -0.57736117 -0.57736117 0.125 0.75
-1 1 -1 -0.5773721 0.57733935 -0.57733935 0.125 0.5
-1 1 1 -0.57732844 0.57736117 0.57736117 0.625 0.25
-1 7.2228503 1 -0.57732844 0.57736117 0.57736117 0.875 0.5
1 5.2228503 1 0.57732844 -0.57736117 0.57736117 0.625 0.75
1 7.2228503 1 0.5773721 0.57733935 0.57733935 0.625 0.5
-1 5.2228503 -1 -0.57732844 -0.57736117 -0.57736117 0.375 1
1 5.2228503 -1 0.5773721 -0.57733935 -0.57733935 0.375 0.75
-1 5.2228503 1 -0.5773721 -0.57733935 0.57733935 0.625 0
-1 7.2228503 -1 -0.5773721 0.57733935 -0.57733935 0.375 0.25
-1 5.2228503 -1 -0.57732844 -0.57736117 -0.57736117 0.375 0
1 7.2228503 -1 0.57732844 0.57736117 -0.57736117 0.375 0.5
-1 5.2228503 -1 -0.57732844 -0.57736117 -0.57736117 0.125 0.75
-1 7.2228503 -1 -0.5773721 0.57733935 -0.57733935 0.125 0.5
-1 7.2228503 1 -0.57732844 0.57736117 0.57736117 0.625 0.25
8.430819 7.2228503 1 -0.57732844 0.57736117 0.57736117 0.875 0.5
10.430819 5.2228503 1 0.57732844 -0.57736117 0.57736117 0.625 0.75
10.430819 7.2228503 1 0.5773721 0.57733935 0.57733935 0.625 0.5
8.430819 5.2228503 -1 -0.57732844 -0.57736117 -0.57736117 0.375 1
10.430819 5.2228503 -1 0.5773721 -0.57733935 -0.57733935 0.375 0.75
8.430819 5.2228503 1 -0.5773721 -0.57733935 0.57733935 0.625 0
8.430819 7.2228503 -1 -0.5773721 0.57733935 -0.57733935 0.375 0.25
8.430819 5.2228503 -1 -0.57732844 -0.57736117 -0.57736117 0.375 0
10.430819 7.2228503 -1 0.57732844 0.57736117 -0.57736117 0.375 0.5
8.430819 5.2228503 -1 -0.57732844 -0.57736117 -0.57736117 0.125 0.75
8.430819 7.2228503 -1 -0.5773721 0.57733935 -0.57733935 0.125 0.5
8.430819 7.2228503 1 -0.57732844 0.57736117 0.57736117 0.625 0.25
8.430819 0.8903899 1 -0.57732844 0.57736117 0.57736117 0.875 0.5
10.430819 -1.1096101 1 0.57732844 -0.57736117 0.57736117 0.625 0.75
10.430819 0.8903899 1 0.5773721 0.57733935 0.57733935 0.625 0.5
8.430819 -1.1096101 -1 -0.57732844 -0.57736117 -0.57736117 0.375 1
10.430819 -1.1096101 -1 0.5773721 -0.57733935 -0.57733935 0.375 0.75
8.430819 -1.1096101 1 -0.5773721 -0.57733935 0.57733935 0.625 0
8.430819 0.8903899 -1 -0.5773721 0.57733935 -0.57733935 0.375 0.25
8.430819 -1.1096101 -1 -0.57732844 -0.57736117 -0.57736117 0.375 0
10.430819 0.8903899 -1 0.57732844 0.57736117 -0.57736117 0.375 0.5
8.430819 -1.1096101 -1 -0.57732844 -0.57736117 -0.57736117 0.125 0.75
8.430819 0.8903899 -1 -0.5773721 0.57733935 -0.57733935 0.125 0.5
8.430819 0.8903899 1 -0.57732844 0.57736117 0.57736117 0.625 0.25
3.7126474 4.805436 10.487557 -3.918127e-07 0 1 0.875 0.5
5.7126474 2.805436 10.487557 3.918126e-07 0 1 0.625 0.75
5.7126474 4.805436 10.487557 -6.151152e-07 0 1 0.625 0.5
5.7126474 4.805436 8.889042 0.30152506 0.30151245 -0.9045291 0.5625 0.5
6.875433 1.6426504 8.889042 0.5773322 -0.57736236 -0.5773562 0.5625 0.75
5.7126474 2.805436 8.889042 0.3015128 -0.301525 -0.90452904 0.5625 0.75
3.7126474 2.805436 10.487557 6.1511497e-07 0 1 0.875 0.75
6.875433 1.6426504 10.487557 0.5773627 -0.577332 0.5773561 0.625 0.75
5.7126474 4.805436 4.093496 4.598247e-08 0 -1 0.375 0.5
3.7126474 2.805436 4.093496 -2.8269502e-09 0 -1 0.125 0.75
3.7126474 4.805436 4.093496 0 0 -1 0.125 0.5
2.549862 1.6426504 8.889042 -0.5773625 -0.57733214 -0.5773563 0.5625 1
3.7126474 2.805436 8.889042 -0.30152506 -0.3015125 -0.9045291 0.5625 1
5.7126474 2.805436 5.692011 0.30152264 -0.30150998 0.9045308 0.43750003 0.75
6.875433 5.9682217 5.692011 0.5773321 0.5773624 0.5773563 0.4375 0.5
5.7126474 4.805436 5.692011 0.3015123 0.30152506 0.9045292 0.4375 0.5
3.7126474 4.805436 8.889042 -0.3015128 0.301525 -0.90452904 0.5625 0.25
6.875433 5.9682217 8.889042 0.5773625 0.5773322 -0.5773562 0.5625 0.5
3.7126474 4.805436 7.2905264 -0.7071068 0.70710677 0 0.5 0.25
3.7126474 4.805436 5.692011 -0.30152524 0.3015125 0.90452904 0.43750003 0.25
5.7126474 4.805436 7.2905264 0.7071068 0.7071068 0 0.49999997 0.5
6.875433 1.6426502 4.093496 0.57734513 -0.57737535 -0.5773303 0.375 0.75
5.7126474 2.805436 4.093496 3.075599e-07 0 -1 0.375 0.75
5.7126474 2.805436 7.2905264 0.70710677 -0.7071068 0 0.5 0.75000006
2.549862 1.6426504 5.6920114 -0.5773451 -0.5773754 0.57733035 0.4375 1
6.875433 1.6426502 5.692011 0.5773495 -0.5773192 0.5773822 0.43750003 0.75
3.7126474 2.805436 7.290527 -0.70710677 -0.7071069 0 0.5 0
3.7126474 2.805436 5.6920114 -0.30151471 -0.30152744 0.90452754 0.4375 0
3.7126474 2.805436 8.889042 -0.30152506 -0.3015125 -0.9045291 0.5625 0
2.549862 5.9682217 10.487557 -0.5773628 0.5773321 0.5773561 0.875 0.5
3.7126474 2.805436 5.6920114 -0.30151471 -0.30152744 0.90452754 0.4375 1
3.7126474 2.805436 7.290527 -0.70710677 -0.7071069 0 0.5 1
2.549862 1.6426504 10.487557 -0.57733214 -0.5773624 0.57735634 0.625 0
2.549862 5.9682217 8.889042 -0.57733226 0.57736236 -0.5773563 0.5625 0.25
2.549862 1.6426504 8.889042 -0.5773625 -0.57733214 -0.5773563 0.5625 0
6.875433 5.9682217 10.487557 0.5773321 0.5773624 0.5773563 0.625 0.5
2.549862 5.9682217 10.487557 -0.5773628 0.5773321 0.5773561 0.625 0.25
2.549862 5.9682217 5.692011 -0.5773626 0.57733214 0.5773561 0.43750003 0.25
6.875433 5.9682217 4.093496 0.5773625 0.5773322 -0.5773562 0.375 0.5
2.549862 5.9682217 4.093496 -0.57731915 0.5773495 -0.5773822 0.375 0.25
2.549862 1.6426504 5.6920114 -0.5773451 -0.5773754 0.57733035 0.4375 0
2.549862 1.6426505 4.093496 -0.5773625 -0.57733214 -0.5773562 0.375 0
2.549862 1.6426505 4.093496 -0.5773625 -0.57733214 -0.5773562 0.375 1
2.549862 1.6426505 4.093496 -0.5773625 -0.57733214 -0.5773562 0.125 0.75
2.549862 5.9682217 4.093496 -0.57731915 0.5773495 -0.5773822 0.125 0.5
2.549862 1.6426504 10.487557 -0.57733214 -0.5773624 0.57735634 0.875 0.75
-1 -1 1 -0.5773721 -0.57733935 0.57733935 0.875 0.75
-1 -1 1 -0.5773721 -0.57733935 0.57733935 0.625 1
-1 5.2228503 1 -0.5773721 -0.57733935 0.57733935 0.875 0.75
-1 5.2228503 1 -0.5773721 -0.57733935 0.57733935 0.625 1
8.430819 5.2228503 1 -0.5773721 -0.57733935 0.57733935 0.875 0.75
8.430819 5.2228503 1 -0.5773721 -0.57733935 0.57733935 0.625 1
8.430819 -1.1096101 1 -0.5773721 -0.57733935 0.57733935 0.875 0.75
8.430819 -1.1096101 1 -0.5773721 -0.57733935 0.57733935 0.625 1
2.549862 1.6426504 10.487557 -0.57733214 -0.5773624 0.57735634 0.625 1
3 0 1 2
3 1 3 4
3 5 6 7
3 8 9 10
3 2 4 8
3 11 8 6
3 12 13 14
3 13 15 16
3 17 18 19
3 20 21 22
3 14 16 20
3 23 20 18
3 24 25 26
3 25 27 28
3 29 30 31
3 32 33 34
3 26 28 32
3 35 32 30
3 36 37 38
3 37 39 40
3 41 42 43
3 44 45 46
3 38 40 44
3 47 44 42
3 48 49 50
3 51 52 53
3 54 55 49
3 56 57 58
3 53 59 60
3 61 62 63
3 64 65 51
3 66 63 67
3 64 68 66
3 56 69 70
3 68 61 63
3 51 71 68
3 61 72 73
3 74 67 75
3 76 66 74
3 50 77 48
3 71 78 61
3 53 79 71
3 55 59 52
3 80 81 82
3 83 52 65
3 84 65 81
3 85 86 87
3 62 69 86
3 88 87 89
3 73 90 69
3 49 83 50
3 58 91 92
3 67 88 75
3 57 69 91
3 58 86 56
3 48 93 54
3 63 85 67
3 76 81 64
3 0 94 1
3 1 95 3
3 5 11 6
3 8 4 9
3 2 1 4
3 11 2 8
3 12 96 13
3 13 97 15
3 17 23 18
3 20 16 21
3 14 13 16
3 23 14 20
3 24 98 25
3 25 99 27
3 29 35 30
3 32 28 33
3 26 25 28
3 35 26 32
3 36 100 37
3 37 101 39
3 41 47 42
3 44 40 45
3 38 37 40
3 47 38 44
3 48 54 49
3 51 65 52
3 54 93 55
3 56 70 57
3 53 52 59
3 61 73 62
3 64 81 65
3 66 68 63
3 64 51 68
3 56 86 69
3 68 71 61
3 51 53 71
3 61 78 72
3 74 66 67
3 76 64 66
3 50 83 77
3 71 79 78
3 53 60 79
3 55 102 59
3 80 84 81
3 83 55 52
3 84 83 65
3 85 62 86
3 62 73 69
3 88 85 87
3 73 72 90
3 49 55 83
3 58 57 91
3 67 85 88
3 57 70 69
3 58 92 86
3 48 77 93
3 63 62 85
3 76 82 81
